<svg id="Layer_1" enable-background="new 0 0 512 512" height="512" viewBox="0 0 512 512" width="512" xmlns="http://www.w3.org/2000/svg"><g><path d="m114 178c-16.569 0-30-13.431-30-30v-44c0-16.569 13.431-30 30-30 16.569 0 30 13.431 30 30v44c0 16.569-13.431 30-30 30z" fill="#ff5722"/><path d="m114 178c-16.569 0-30-13.431-30-30v-44c0-16.569 13.431-30 30-30 16.569 0 30 13.431 30 30v44c0 16.569-13.431 30-30 30z" fill="#ff5722"/><path d="m114 74c-5.466 0-10.586 1.469-15 4.023 8.964 5.188 15 14.874 15 25.977v44c0 11.102-6.036 20.789-15 25.977 4.414 2.554 9.534 4.023 15 4.023 16.569 0 30-13.431 30-30v-44c0-16.569-13.431-30-30-30z" fill="#f4511e"/><path d="m174 178c-16.569 0-30-13.431-30-30v-44c0-16.569 13.431-30 30-30 16.569 0 30 13.431 30 30v44c0 16.569-13.431 30-30 30z" fill="#ff5722"/><path d="m174 178c-16.569 0-30-13.431-30-30v-44c0-16.569 13.431-30 30-30 16.569 0 30 13.431 30 30v44c0 16.569-13.431 30-30 30z" fill="#ff5722"/><path d="m174 74c-5.466 0-10.586 1.469-15 4.023 8.964 5.188 15 14.874 15 25.977v44c0 11.102-6.036 20.789-15 25.977 4.414 2.554 9.534 4.023 15 4.023 16.569 0 30-13.431 30-30v-44c0-16.569-13.431-30-30-30z" fill="#f4511e"/><path d="m234 178c-16.569 0-30-13.431-30-30v-44c0-16.569 13.431-30 30-30 16.569 0 30 13.431 30 30v44c0 16.569-13.431 30-30 30z" fill="#ff5722"/><path d="m234 178c-16.569 0-30-13.431-30-30v-44c0-16.569 13.431-30 30-30 16.569 0 30 13.431 30 30v44c0 16.569-13.431 30-30 30z" fill="#ff5722"/><path d="m234 74c-5.466 0-10.586 1.469-15 4.023 8.964 5.188 15 14.874 15 25.977v44c0 11.102-6.036 20.789-15 25.977 4.414 2.554 9.534 4.023 15 4.023 16.569 0 30-13.431 30-30v-44c0-16.569-13.431-30-30-30z" fill="#f4511e"/><path d="m114 308c-16.569 0-30-13.431-30-30v-44c0-16.569 13.431-30 30-30 16.569 0 30 13.431 30 30v44c0 16.569-13.431 30-30 30z" fill="#ff5722"/><path d="m114 308c-16.569 0-30-13.431-30-30v-44c0-16.569 13.431-30 30-30 16.569 0 30 13.431 30 30v44c0 16.569-13.431 30-30 30z" fill="#ffd740"/><path d="m114 204c-5.466 0-10.586 1.469-15 4.023 8.964 5.188 15 14.874 15 25.977v44c0 11.102-6.036 20.789-15 25.977 4.414 2.554 9.534 4.023 15 4.023 16.569 0 30-13.431 30-30v-44c0-16.569-13.431-30-30-30z" fill="#ffc400"/><path d="m174 308c-16.569 0-30-13.431-30-30v-44c0-16.569 13.431-30 30-30 16.569 0 30 13.431 30 30v44c0 16.569-13.431 30-30 30z" fill="#ff5722"/><path d="m174 308c-16.569 0-30-13.431-30-30v-44c0-16.569 13.431-30 30-30 16.569 0 30 13.431 30 30v44c0 16.569-13.431 30-30 30z" fill="#ffd740"/><path d="m174 204c-5.466 0-10.586 1.469-15 4.023 8.964 5.188 15 14.874 15 25.977v44c0 11.102-6.036 20.789-15 25.977 4.414 2.554 9.534 4.023 15 4.023 16.569 0 30-13.431 30-30v-44c0-16.569-13.431-30-30-30z" fill="#ffc400"/><path d="m234 308c-16.569 0-30-13.431-30-30v-44c0-16.569 13.431-30 30-30 16.569 0 30 13.431 30 30v44c0 16.569-13.431 30-30 30z" fill="#ff5722"/><path d="m234 308c-16.569 0-30-13.431-30-30v-44c0-16.569 13.431-30 30-30 16.569 0 30 13.431 30 30v44c0 16.569-13.431 30-30 30z" fill="#ffd740"/><path d="m234 204c-5.466 0-10.586 1.469-15 4.023 8.964 5.188 15 14.874 15 25.977v44c0 11.102-6.036 20.789-15 25.977 4.414 2.554 9.534 4.023 15 4.023 16.569 0 30-13.431 30-30v-44c0-16.569-13.431-30-30-30z" fill="#ffc400"/><path d="m333.951 308c-16.569 0-30-13.431-30-30v-44c0-16.569 13.431-30 30-30 16.569 0 30 13.431 30 30v44c0 16.569-13.432 30-30 30z" fill="#ff5722"/><path d="m333.951 308c-16.569 0-30-13.431-30-30v-44c0-16.569 13.431-30 30-30 16.569 0 30 13.431 30 30v44c0 16.569-13.432 30-30 30z" fill="#ffd740"/><path d="m333.951 204c-5.466 0-10.586 1.469-15 4.023 8.964 5.188 15 14.874 15 25.977v44c0 11.102-6.036 20.789-15 25.977 4.414 2.554 9.534 4.023 15 4.023 16.569 0 30-13.431 30-30v-44c0-16.569-13.432-30-30-30z" fill="#ffc400"/><path d="m114 438c-16.569 0-30-13.431-30-30v-44c0-16.569 13.431-30 30-30 16.569 0 30 13.431 30 30v44c0 16.569-13.431 30-30 30z" fill="#ff5722"/><path d="m114 438c-16.569 0-30-13.431-30-30v-44c0-16.569 13.431-30 30-30 16.569 0 30 13.431 30 30v44c0 16.569-13.431 30-30 30z" fill="#81d4fa"/><path d="m114 334c-5.466 0-10.586 1.469-15 4.023 8.964 5.188 15 14.874 15 25.977v44c0 11.102-6.036 20.789-15 25.977 4.414 2.554 9.534 4.023 15 4.023 16.569 0 30-13.431 30-30v-44c0-16.569-13.431-30-30-30z" fill="#4fc3f7"/><path d="m174 438c-16.569 0-30-13.431-30-30v-44c0-16.569 13.431-30 30-30 16.569 0 30 13.431 30 30v44c0 16.569-13.431 30-30 30z" fill="#ff5722"/><path d="m174 438c-16.569 0-30-13.431-30-30v-44c0-16.569 13.431-30 30-30 16.569 0 30 13.431 30 30v44c0 16.569-13.431 30-30 30z" fill="#81d4fa"/><path d="m174 334c-5.466 0-10.586 1.469-15 4.023 8.964 5.188 15 14.874 15 25.977v44c0 11.102-6.036 20.789-15 25.977 4.414 2.554 9.534 4.023 15 4.023 16.569 0 30-13.431 30-30v-44c0-16.569-13.431-30-30-30z" fill="#4fc3f7"/><path d="m234 438c-16.569 0-30-13.431-30-30v-44c0-16.569 13.431-30 30-30 16.569 0 30 13.431 30 30v44c0 16.569-13.431 30-30 30z" fill="#ff5722"/><path d="m234 438c-16.569 0-30-13.431-30-30v-44c0-16.569 13.431-30 30-30 16.569 0 30 13.431 30 30v44c0 16.569-13.431 30-30 30z" fill="#81d4fa"/><path d="m234 334c-5.466 0-10.586 1.469-15 4.023 8.964 5.188 15 14.874 15 25.977v44c0 11.102-6.036 20.789-15 25.977 4.414 2.554 9.534 4.023 15 4.023 16.569 0 30-13.431 30-30v-44c0-16.569-13.431-30-30-30z" fill="#4fc3f7"/><path d="m406.75 438c-16.569 0-30-13.431-30-30v-44c0-16.569 13.431-30 30-30 16.569 0 30 13.431 30 30v44c0 16.569-13.431 30-30 30z" fill="#ff5722"/><path d="m406.75 438c-16.569 0-30-13.431-30-30v-44c0-16.569 13.431-30 30-30 16.569 0 30 13.431 30 30v44c0 16.569-13.431 30-30 30z" fill="#81d4fa"/><path d="m406.75 334c-5.466 0-10.586 1.469-15 4.023 8.964 5.188 15 14.874 15 25.977v44c0 11.102-6.036 20.789-15 25.977 4.414 2.554 9.534 4.023 15 4.023 16.569 0 30-13.431 30-30v-44c0-16.569-13.431-30-30-30z" fill="#4fc3f7"/><path d="m399.25 178c-16.569 0-30-13.431-30-30v-44c0-16.569 13.431-30 30-30 16.569 0 30 13.431 30 30v44c0 16.569-13.431 30-30 30z" fill="#ff5722"/><path d="m399.25 178c-16.569 0-30-13.431-30-30v-44c0-16.569 13.431-30 30-30 16.569 0 30 13.431 30 30v44c0 16.569-13.431 30-30 30z" fill="#ff5722"/><path d="m399.25 74c-5.466 0-10.586 1.469-15 4.023 8.964 5.188 15 14.874 15 25.977v44c0 11.102-6.036 20.789-15 25.977 4.414 2.554 9.534 4.023 15 4.023 16.569 0 30-13.431 30-30v-44c0-16.569-13.431-30-30-30z" fill="#f4511e"/><path d="m22.5 482c-8.284 0-15-6.716-15-15v-422c0-8.284 6.716-15 15-15 8.284 0 15 6.716 15 15v422c0 8.284-6.716 15-15 15z" fill="#e38a54"/><path d="m489.5 482c-8.284 0-15-6.716-15-15v-422c0-8.284 6.716-15 15-15 8.284 0 15 6.716 15 15v422c0 8.284-6.716 15-15 15z" fill="#d67c47"/><path d="m504.5 327.68c4.143 0 7.5-3.358 7.5-7.5v-275.18c0-12.407-10.094-22.5-22.5-22.5s-22.5 10.093-22.5 22.5v73.5h-30.25v-14.5c0-20.678-16.822-37.5-37.5-37.5s-37.5 16.822-37.5 37.5v14.5h-90.25v-14.5c0-20.678-16.822-37.5-37.5-37.5-12.254 0-23.153 5.909-30 15.026-6.847-9.117-17.746-15.026-30-15.026s-23.153 5.909-30 15.026c-6.847-9.117-17.746-15.026-30-15.026-20.678 0-37.5 16.822-37.5 37.5v14.5h-31.5v-73.5c0-12.407-10.094-22.5-22.5-22.5s-22.5 10.093-22.5 22.5v18.769c0 4.142 3.357 7.5 7.5 7.5s7.5-3.358 7.5-7.5v-18.769c0-4.136 3.364-7.5 7.5-7.5s7.5 3.364 7.5 7.5v422c0 4.136-3.364 7.5-7.5 7.5s-7.5-3.364-7.5-7.5v-371.231c0-4.142-3.357-7.5-7.5-7.5s-7.5 3.358-7.5 7.5v371.231c0 12.407 10.094 22.5 22.5 22.5s22.5-10.093 22.5-22.5v-73.501h31.5v14.501c0 20.678 16.822 37.5 37.5 37.5 12.254 0 23.153-5.909 30-15.026 6.847 9.117 17.746 15.026 30 15.026s23.153-5.909 30-15.026c6.847 9.117 17.746 15.026 30 15.026 20.678 0 37.5-16.822 37.5-37.5v-14.501h16.423c4.143 0 7.5-3.358 7.5-7.5s-3.357-7.5-7.5-7.5h-16.423v-14.499c0-20.678-16.822-37.5-37.5-37.5-12.254 0-23.153 5.909-30 15.026-6.847-9.117-17.746-15.026-30-15.026s-23.153 5.909-30 15.026c-6.847-9.117-17.746-15.026-30-15.026-20.678 0-37.5 16.822-37.5 37.5v14.499h-31.5v-115h31.5v14.501c0 20.678 16.822 37.5 37.5 37.5 12.254 0 23.153-5.909 30-15.026 6.847 9.117 17.746 15.026 30 15.026s23.153-5.909 30-15.026c6.847 9.117 17.746 15.026 30 15.026 20.678 0 37.5-16.822 37.5-37.5v-14.501h24.95v14.501c0 20.678 16.822 37.5 37.5 37.5s37.5-16.822 37.5-37.5v-14.501h95.55v115h-22.75v-14.499c0-20.678-16.822-37.5-37.5-37.5s-37.5 16.822-37.5 37.5v14.499h-49.25c-4.143 0-7.5 3.358-7.5 7.5s3.357 7.5 7.5 7.5h49.25v14.501c0 20.678 16.822 37.5 37.5 37.5s37.5-16.822 37.5-37.5v-14.501h22.75v73.501c0 12.407 10.094 22.5 22.5 22.5s22.5-10.093 22.5-22.5v-114.82c0-4.142-3.357-7.5-7.5-7.5s-7.5 3.358-7.5 7.5v114.82c0 4.136-3.364 7.5-7.5 7.5s-7.5-3.364-7.5-7.5v-422c0-4.136 3.364-7.5 7.5-7.5s7.5 3.364 7.5 7.5v275.18c0 4.142 3.357 7.5 7.5 7.5zm-270.5 13.82c12.406 0 22.5 10.093 22.5 22.5v44c0 12.407-10.094 22.5-22.5 22.5s-22.5-10.093-22.5-22.5v-44c0-12.407 10.094-22.5 22.5-22.5zm-60 0c12.406 0 22.5 10.093 22.5 22.5v44c0 12.407-10.094 22.5-22.5 22.5s-22.5-10.093-22.5-22.5v-44c0-12.407 10.094-22.5 22.5-22.5zm-82.5 22.5c0-12.407 10.094-22.5 22.5-22.5s22.5 10.093 22.5 22.5v44c0 12.407-10.094 22.5-22.5 22.5s-22.5-10.093-22.5-22.5zm337.75 44c0 12.407-10.094 22.5-22.5 22.5s-22.5-10.093-22.5-22.5v-44c0-12.407 10.094-22.5 22.5-22.5s22.5 10.093 22.5 22.5zm-52.5-304c0-12.407 10.094-22.5 22.5-22.5s22.5 10.093 22.5 22.5v44c0 12.407-10.094 22.5-22.5 22.5s-22.5-10.093-22.5-22.5zm-142.75-22.5c12.406 0 22.5 10.093 22.5 22.5v44c0 12.407-10.094 22.5-22.5 22.5s-22.5-10.093-22.5-22.5v-44c0-12.407 10.094-22.5 22.5-22.5zm-60 0c12.406 0 22.5 10.093 22.5 22.5v44c0 12.407-10.094 22.5-22.5 22.5s-22.5-10.093-22.5-22.5v-44c0-12.407 10.094-22.5 22.5-22.5zm-82.5 22.5c0-12.407 10.094-22.5 22.5-22.5s22.5 10.093 22.5 22.5v44c0 12.407-10.094 22.5-22.5 22.5s-22.5-10.093-22.5-22.5zm22.5 196.5c-12.406 0-22.5-10.093-22.5-22.5v-44c0-12.407 10.094-22.5 22.5-22.5s22.5 10.093 22.5 22.5v44c0 12.407-10.094 22.5-22.5 22.5zm60 0c-12.406 0-22.5-10.093-22.5-22.5v-44c0-12.407 10.094-22.5 22.5-22.5s22.5 10.093 22.5 22.5v44c0 12.407-10.094 22.5-22.5 22.5zm82.5-22.5c0 12.407-10.094 22.5-22.5 22.5s-22.5-10.093-22.5-22.5v-44c0-12.407 10.094-22.5 22.5-22.5s22.5 10.093 22.5 22.5zm99.95 0c0 12.407-10.094 22.5-22.5 22.5s-22.5-10.093-22.5-22.5v-44c0-12.407 10.094-22.5 22.5-22.5s22.5 10.093 22.5 22.5zm15-29.501v-14.499c0-20.678-16.822-37.5-37.5-37.5s-37.5 16.822-37.5 37.5v14.499h-24.95v-14.499c0-20.678-16.822-37.5-37.5-37.5-12.254 0-23.153 5.909-30 15.026-6.847-9.117-17.746-15.026-30-15.026s-23.153 5.909-30 15.026c-6.847-9.117-17.746-15.026-30-15.026-20.678 0-37.5 16.822-37.5 37.5v14.499h-31.5v-114.999h31.5v14.5c0 20.678 16.822 37.5 37.5 37.5 12.254 0 23.153-5.909 30-15.026 6.847 9.117 17.746 15.026 30 15.026s23.153-5.909 30-15.026c6.847 9.117 17.746 15.026 30 15.026 20.678 0 37.5-16.822 37.5-37.5v-14.5h90.25v14.5c0 20.678 16.822 37.5 37.5 37.5s37.5-16.822 37.5-37.5v-14.5h30.25v114.999z"/></g></svg>