<?xml version="1.0" encoding="iso-8859-1"?>
<!-- Generator: Adobe Illustrator 19.0.0, SVG Export Plug-In . SVG Version: 6.00 Build 0)  -->
<svg version="1.1" id="Layer_1" xmlns="http://www.w3.org/2000/svg" xmlns:xlink="http://www.w3.org/1999/xlink" x="0px" y="0px"
	 viewBox="0 0 512.001 512.001" style="enable-background:new 0 0 512.001 512.001;" xml:space="preserve">
<g>
	<g>
		<g>
			<path d="M471.652,248.164c-4.403-112.463-95.26-203.09-207.814-207.129V0.001h-15.674v41.034
				C135.608,45.073,44.753,135.701,40.348,248.164H0v15.674h40.294c3.689,113.123,94.838,204.5,207.87,208.556V512h15.674v-39.606
				c113.031-4.056,204.181-95.433,207.871-208.556h40.293v-15.674H471.652z M263.837,456.709v-40.709h-15.674v40.709
				c-104.387-4.041-188.512-88.393-192.186-192.872H96v-15.674H56.032c4.387-103.819,88.22-187.423,192.131-191.446V96h15.674
				V56.718c103.911,4.023,187.746,87.626,192.131,191.446h-39.968v15.674h40.022C452.348,368.316,368.224,452.669,263.837,456.709z"
				/>
			<rect x="248" y="248.878" width="16.001" height="15.674"/>
			<rect x="279.995" y="248.878" width="16" height="15.674"/>
			<rect x="216.004" y="248.878" width="16.001" height="15.674"/>
		</g>
	</g>
</g>
<g>
</g>
<g>
</g>
<g>
</g>
<g>
</g>
<g>
</g>
<g>
</g>
<g>
</g>
<g>
</g>
<g>
</g>
<g>
</g>
<g>
</g>
<g>
</g>
<g>
</g>
<g>
</g>
<g>
</g>
</svg>
