<svg height="512pt" viewBox="0 -13 512 512" width="512pt" xmlns="http://www.w3.org/2000/svg"><path d="m512 197.734375c0-13.828125-11.25-25.078125-25.078125-25.078125h-111.007813c-13.828124 0-25.078124 11.25-25.078124 25.078125v24.742187c0 6.691407 2.640624 12.773438 6.925781 17.277344-4.285157 4.5-6.925781 10.582032-6.925781 17.273438v24.742187c0 6.691407 2.640624 12.773438 6.925781 17.277344-4.285157 4.5-6.925781 10.582031-6.925781 17.273437v24.742188c0 6.691406 2.640624 12.773438 6.925781 17.277344-4.285157 4.5-6.925781 10.582031-6.925781 17.273437v24.742188c0 6.945312 2.839843 13.234375 7.410156 17.78125-4.570313 4.542969-7.410156 10.835937-7.410156 17.777343v24.746094c0 13.828125 11.25 25.078125 25.078124 25.078125h60.183594c4.148438 0 7.511719-3.363281 7.511719-7.511719 0-4.148437-3.363281-7.511718-7.511719-7.511718h-60.183594c-5.542968 0-10.054687-4.511719-10.054687-10.054688v-24.746094c0-5.542968 4.511719-10.054687 10.054687-10.054687h111.007813c5.542969 0 10.054687 4.511719 10.054687 10.054687v24.746094c0 5.542969-4.507812 10.054688-10.054687 10.054688h-15.855469c-4.152344 0-7.511718 3.363281-7.511718 7.511718 0 4.148438 3.359374 7.511719 7.511718 7.511719h15.855469c13.828125 0 25.078125-11.25 25.078125-25.078125v-24.746094c0-6.941406-2.835938-13.234374-7.410156-17.777343 4.574218-4.546875 7.410156-10.839844 7.410156-17.78125v-24.742188c0-6.691406-2.640625-12.773437-6.925781-17.273437 4.285156-4.503906 6.925781-10.585938 6.925781-17.277344v-24.742188c0-6.691406-2.640625-12.773437-6.925781-17.273437 4.285156-4.503906 6.925781-10.585937 6.925781-17.277344v-24.742187c0-6.691406-2.640625-12.773438-6.925781-17.273438 4.285156-4.503906 6.925781-10.585937 6.925781-17.277344zm-15.023438 202.625c0 5.542969-4.507812 10.054687-10.054687 10.054687h-111.007813c-5.542968 0-10.054687-4.511718-10.054687-10.054687v-24.746094c0-4.550781 3.042969-8.402343 7.199219-9.636719.9375.105469 1.890625.167969 2.855468.167969h111.007813c.964844 0 1.917969-.0625 2.855469-.167969 4.15625 1.234376 7.199218 5.085938 7.199218 9.636719zm0-59.296875c0 4.554688-3.042968 8.40625-7.199218 9.640625-.9375-.109375-1.890625-.167969-2.855469-.167969h-111.007813c-.964843 0-1.917968.058594-2.855468.167969-4.15625-1.234375-7.199219-5.085937-7.199219-9.640625v-24.742188c0-4.554687 3.042969-8.40625 7.203125-9.640624.9375.109374 1.886719.167968 2.851562.167968h111.007813c.964844 0 1.914063-.058594 2.851563-.167968 4.160156 1.234374 7.203124 5.085937 7.203124 9.640624zm0-59.292969c0 4.554688-3.042968 8.40625-7.203124 9.640625-.9375-.109375-1.886719-.167968-2.851563-.167968h-111.007813c-.964843 0-1.914062.058593-2.851562.167968-4.160156-1.234375-7.203125-5.085937-7.203125-9.640625v-24.742187c0-4.550782 3.042969-8.402344 7.203125-9.636719.9375.105469 1.886719.164063 2.851562.164063h111.007813c.964844 0 1.914063-.058594 2.851563-.164063 4.160156 1.234375 7.203124 5.085937 7.203124 9.636719zm0-59.292969c0 4.554688-3.042968 8.40625-7.203124 9.640626-.9375-.109376-1.886719-.167969-2.851563-.167969h-111.007813c-.964843 0-1.914062.058593-2.851562.167969-4.160156-1.234376-7.203125-5.085938-7.203125-9.640626v-24.742187c0-5.542969 4.511719-10.058594 10.058594-10.058594h111.003906c5.542969 0 10.054687 4.511719 10.054687 10.058594zm0 0"/><path d="m311.503906 231.949219h-111.007812c-13.828125 0-25.078125 11.25-25.078125 25.078125v24.742187c0 6.691407 2.640625 12.773438 6.925781 17.277344-4.285156 4.5-6.925781 10.582031-6.925781 17.273437v24.742188c0 6.691406 2.640625 12.773438 6.925781 17.277344-4.285156 4.5-6.925781 10.582031-6.925781 17.273437v24.742188c0 6.945312 2.835937 13.234375 7.410156 17.78125-4.574219 4.542969-7.410156 10.835937-7.410156 17.777343v24.746094c0 13.828125 11.25 25.078125 25.078125 25.078125h111.007812c13.828125 0 25.078125-11.25 25.078125-25.078125v-24.746094c0-6.941406-2.839843-13.234374-7.410156-17.777343 4.570313-4.546875 7.410156-10.839844 7.410156-17.78125v-24.742188c0-6.691406-2.640625-12.773437-6.925781-17.273437 4.285156-4.503906 6.925781-10.585938 6.925781-17.277344v-24.742188c0-6.691406-2.640625-12.773437-6.925781-17.273437 4.285156-4.503906 6.925781-10.585937 6.925781-17.277344v-24.742187c0-13.828125-11.25-25.078125-25.078125-25.078125zm10.054688 228.710937c0 5.542969-4.511719 10.054688-10.054688 10.054688h-111.007812c-5.542969 0-10.054688-4.507813-10.054688-10.054688v-24.742187c0-5.546875 4.507813-10.058594 10.054688-10.058594h111.007812c5.542969 0 10.054688 4.511719 10.054688 10.058594zm0-60.300781c0 5.542969-4.511719 10.054687-10.054688 10.054687h-111.007812c-5.542969 0-10.054688-4.511718-10.054688-10.054687v-24.746094c0-4.550781 3.042969-8.402343 7.199219-9.636719.9375.105469 1.890625.167969 2.855469.167969h111.007812c.964844 0 1.917969-.0625 2.855469-.167969 4.15625 1.234376 7.199219 5.085938 7.199219 9.636719zm0-59.296875c0 4.554688-3.042969 8.40625-7.199219 9.640625-.9375-.109375-1.890625-.167969-2.855469-.167969h-111.007812c-.964844 0-1.917969.058594-2.855469.167969-4.15625-1.234375-7.199219-5.085937-7.199219-9.640625v-24.742188c0-4.554687 3.042969-8.40625 7.199219-9.640624.9375.109374 1.890625.167968 2.855469.167968h111.003906c.96875 0 1.917969-.058594 2.855469-.167968 4.15625 1.234374 7.203125 5.085937 7.203125 9.640624zm0-59.292969c0 4.554688-3.042969 8.40625-7.203125 9.640625-.9375-.109375-1.886719-.167968-2.851563-.167968h-111.007812c-.964844 0-1.917969.058593-2.851563.167968-4.160156-1.234375-7.203125-5.085937-7.203125-9.640625v-24.742187c0-5.542969 4.511719-10.058594 10.054688-10.058594h111.007812c5.542969 0 10.054688 4.511719 10.054688 10.058594zm0 0"/><path d="m136.082031 291.242188h-111.003906c-13.828125 0-25.078125 11.25-25.078125 25.078124v24.742188c0 6.691406 2.640625 12.773438 6.925781 17.277344-4.285156 4.5-6.925781 10.582031-6.925781 17.273437v24.742188c0 6.945312 2.835938 13.234375 7.410156 17.78125-4.574218 4.546875-7.410156 10.835937-7.410156 17.78125v24.742187c0 13.828125 11.25 25.078125 25.078125 25.078125h111.007813c13.824218 0 25.078124-11.25 25.078124-25.078125v-24.742187c0-6.945313-2.839843-13.234375-7.410156-17.78125 4.570313-4.546875 7.410156-10.835938 7.410156-17.777344v-24.746094c0-6.691406-2.640624-12.773437-6.925781-17.273437 4.285157-4.5 6.925781-10.585938 6.925781-17.273438v-24.746094c-.003906-13.828124-11.253906-25.078124-25.082031-25.078124zm10.058594 169.417968c0 5.542969-4.511719 10.054688-10.058594 10.054688h-111.003906c-5.542969 0-10.054687-4.507813-10.054687-10.054688v-24.742187c0-5.546875 4.507812-10.058594 10.054687-10.058594h111.007813c5.542968 0 10.054687 4.511719 10.054687 10.058594zm0-60.300781c0 5.542969-4.511719 10.054687-10.058594 10.054687h-111.003906c-5.542969 0-10.054687-4.511718-10.054687-10.054687v-24.746094c0-4.550781 3.042968-8.402343 7.199218-9.636719.9375.105469 1.890625.167969 2.855469.167969h111.007813c.964843 0 1.917968-.0625 2.855468-.167969 4.15625 1.234376 7.199219 5.085938 7.199219 9.636719zm0-59.296875c0 4.554688-3.042969 8.40625-7.203125 9.640625-.9375-.109375-1.886719-.167969-2.855469-.167969h-111.003906c-.964844 0-1.917969.058594-2.855469.167969-4.15625-1.234375-7.199218-5.085937-7.199218-9.640625v-24.742188c0-5.546874 4.507812-10.058593 10.054687-10.058593h111.007813c5.542968 0 10.054687 4.511719 10.054687 10.058593zm0 0"/><path d="m47.785156 248.738281c3.179688 1.035157 6.453125 1.546875 9.710938 1.546875 5.792968 0 11.53125-1.621094 16.570312-4.785156l34.40625-18.894531c3.636719-1.996094 4.964844-6.5625 2.96875-10.199219s-6.5625-4.964844-10.199218-2.96875l-34.609376 19.007812c-.148437.082032-.289062.164063-.429687.253907-4.109375 2.628906-9.125 3.265625-13.761719 1.753906-4.636718-1.511719-8.3125-4.984375-10.085937-9.527344-2.851563-7.324219-.078125-15.582031 6.601562-19.699219l206.976563-112.390624c.101562-.050782.199218-.109376.296875-.167969 3.375-2.035157 7.6875-1.722657 10.730469.78125l12.226562 10.054687c7.566406 6.226563 18.066406 7.3125 26.742188 2.769532l90.351562-47.285157c2.6875-1.40625 4.265625-4.289062 4-7.308593-.261719-3.015626-2.3125-5.582032-5.199219-6.503907l-5.859375-1.867187c-7.605468-2.425782-11.820312-10.585938-9.394531-18.191406 1.195313-3.746094 3.792969-6.78125 7.3125-8.542969 3.515625-1.761719 7.503906-2.023438 11.222656-.734375l70.070313 24.285156c1.210937.417969 1.773437 1.320312 2.003906 1.820312.226562.5.539062 1.519532.066406 2.707032l-27.523437 68.867187c-1.457031 3.652344-4.265625 6.496094-7.902344 8-3.632813 1.507813-7.628906 1.484375-11.242187-.066406-7.339844-3.148437-10.746094-11.675781-7.601563-19.011719l3.246094-7.574218c1.25-2.914063.539062-6.296876-1.78125-8.457032-2.320313-2.160156-5.746094-2.632812-8.5625-1.179687l-118.75 61.257812c-3.429688 1.765625-7.511719 1.265625-10.410157-1.273437l-8.21875-7.199219c-8.023437-7.03125-19.875-7.980469-28.914062-2.347656l-110.660156 60.777343c-3.636719 1.996094-4.964844 6.5625-2.96875 10.199219s6.5625 4.964844 10.199218 2.96875l110.859376-60.886719c.148437-.078124.289062-.164062.429687-.253906 3.472656-2.21875 8.058594-1.871094 11.15625.84375l8.21875 7.199219c7.574219 6.636719 18.25 7.9375 27.195313 3.324219l102.796874-53.027344c-.527343 11.914062 6.253907 23.476562 17.84375 28.445312 7.371094 3.160157 15.507813 3.210938 22.917969.140626 7.40625-3.066407 13.125-8.859376 16.101563-16.304688l27.519531-68.867188c1.863281-4.660156 1.734375-9.953124-.351563-14.523437-2.085937-4.566406-6.003906-8.128906-10.746093-9.773437l-70.074219-24.285157c-7.574219-2.625-15.695312-2.09375-22.867188 1.496094-7.167968 3.589844-12.460937 9.773437-14.894531 17.414063-3.867187 12.121093.546875 24.9375 10.070313 32.308593l-76.621094 40.097657c-3.324219 1.742187-7.339844 1.324218-10.238281-1.058594l-12.226563-10.054688c-7.902344-6.503906-19.082031-7.351562-27.875-2.136718l-207.003906 112.40625c-.101562.050781-.199219.109374-.296875.167968-13.046875 7.875-18.503906 23.894532-12.96875 38.097656 3.414063 8.75 10.492187 15.441407 19.425781 18.355469zm0 0"/></svg>