<svg id="Capa_1" enable-background="new 0 0 512 512" height="512" viewBox="0 0 512 512" width="512" xmlns="http://www.w3.org/2000/svg"><g><g><g><path d="m112.501 7.502c-18.445 0-33.398 14.953-33.398 33.398v430.201c0 18.445 14.953 33.398 33.398 33.398h286.998c18.445 0 33.398-14.953 33.398-33.398v-360.614c0-6.71-2.666-13.146-7.41-17.89l-77.684-77.684c-4.745-4.745-11.18-7.41-17.89-7.41h-217.412z" fill="#f5f5f5"/></g><path d="m425.486 92.597-51.494-51.494-.183 86.377c-.011 5.422 4.381 9.824 9.803 9.824 5.414 0 9.803 4.389 9.803 9.803v323.993c0 18.445-14.953 33.398-33.397 33.398h39.481c18.445 0 33.398-14.953 33.398-33.398v-326.749-33.864c-.001-6.71-2.666-13.146-7.411-17.89z" fill="#eaeaea"/><path d="m425.486 92.597-77.684-77.684c-2.163-2.163-4.679-3.888-7.41-5.131v56.828c0 18.445 14.953 33.398 33.397 33.398h56.829c-1.244-2.732-2.969-5.248-5.132-7.411z" fill="#a8d0d5"/><g><path d="m381.536 386.243h-251.072c-6.561 0-11.88-5.319-11.88-11.88v-182.655c0-6.561 5.319-11.88 11.88-11.88h251.072c6.561 0 11.88 5.319 11.88 11.88v182.655c0 6.562-5.319 11.88-11.88 11.88z" fill="#9ae7fd"/><path d="m381.536 179.829h-39.829c6.561 0 11.88 5.319 11.88 11.879v182.655c0 6.561-5.319 11.879-11.88 11.879h39.829c6.561 0 11.88-5.319 11.88-11.879v-182.655c0-6.56-5.319-11.879-11.88-11.879z" fill="#64dcfc"/><path d="m325.339 268.897c-3.788-4.526-10.747-4.526-14.536 0l-91.413 109.205c-2.065 2.467-2.6 5.45-1.987 8.141h164.132c6.561 0 11.88-5.319 11.88-11.88v-24.139z" fill="#89c627"/><path d="m381.536 386.244c6.561 0 11.88-5.319 11.88-11.88v-24.14l-39.829-47.581v83.6h27.949z" fill="#7db723"/><path d="m206.442 240.037c-3.788-4.526-10.747-4.526-14.535 0l-73.322 87.593v46.734c0 6.561 5.319 11.88 11.88 11.88h193.789c.528-2.627-.033-5.505-2.037-7.9z" fill="#95d528"/></g><g><path d="m381.536 172.327h-251.072c-10.687 0-19.382 8.695-19.382 19.381v182.656c0 10.687 8.695 19.381 19.382 19.381h251.072c10.687 0 19.382-8.695 19.382-19.381v-182.656c0-10.686-8.695-19.381-19.382-19.381zm0 206.415h-50.59c-.669-1.869-1.659-3.637-2.978-5.213l-115.774-138.308c-6.792-8.113-19.261-8.099-26.04 0l-50.593 60.44c-2.659 3.177-2.24 7.908.937 10.568 3.176 2.659 7.908 2.241 10.568-.937l50.593-60.44c.794-.949 2.239-.944 3.031 0l112.076 133.89h-182.302c-2.414 0-4.378-1.964-4.378-4.378v-182.656c0-2.414 1.964-4.378 4.378-4.378h251.072c2.414 0 4.378 1.964 4.378 4.378v137.867l-54.823-65.494c-6.794-8.116-19.261-8.099-26.04 0l-17.9 21.384c-2.659 3.177-2.24 7.908.937 10.568 3.178 2.659 7.908 2.24 10.568-.937l17.9-21.384c.794-.948 2.238-.946 3.031 0l66.328 79.238v21.414c-.001 2.414-1.965 4.378-4.379 4.378z"/></g></g><path d="m430.79 87.292-77.684-77.684c-6.196-6.196-14.433-9.608-23.195-9.608h-217.41c-22.552 0-40.899 18.347-40.899 40.9v430.201c0 22.552 18.347 40.899 40.899 40.899h286.998c22.552 0 40.899-18.347 40.899-40.899v-360.613c0-8.762-3.412-17-9.608-23.196zm-16.005 5.214h-40.997c-14.279 0-25.896-11.617-25.896-25.896v-40.997zm10.61 378.595c0 14.279-11.617 25.896-25.896 25.896h-286.998c-14.279 0-25.896-11.617-25.896-25.896v-430.201c0-14.279 11.617-25.896 25.896-25.896h217.41c1.01 0 2.002.101 2.978.265v51.341c0 22.552 18.348 40.9 40.9 40.9h51.341c.164.976.265 1.968.265 2.978z"/></g></svg>