<svg id="Capa_1" enable-background="new 0 0 512 512" height="512" viewBox="0 0 512 512" width="512" xmlns="http://www.w3.org/2000/svg"><path d="m404.923 41.846c0-4.142-3.358-7.5-7.5-7.5h-282.846c-4.142 0-7.5 3.358-7.5 7.5v101.016c0 4.142 3.358 7.5 7.5 7.5h282.846c4.142 0 7.5-3.358 7.5-7.5zm-15 93.516h-267.846v-86.016h267.846z"/><path d="m107.077 240.949c0 9.649 7.851 17.5 17.5 17.5h40.61c9.649 0 17.5-7.851 17.5-17.5v-40.61c0-9.649-7.851-17.5-17.5-17.5h-40.61c-9.649 0-17.5 7.851-17.5 17.5zm15-40.61c0-1.378 1.122-2.5 2.5-2.5h40.61c1.378 0 2.5 1.122 2.5 2.5v40.61c0 1.378-1.122 2.5-2.5 2.5h-40.61c-1.378 0-2.5-1.122-2.5-2.5z"/><path d="m293.805 200.339c0-9.649-7.851-17.5-17.5-17.5h-40.609c-9.649 0-17.5 7.851-17.5 17.5v40.61c0 9.649 7.851 17.5 17.5 17.5h40.609c9.649 0 17.5-7.851 17.5-17.5zm-15 40.61c0 1.378-1.122 2.5-2.5 2.5h-40.609c-1.378 0-2.5-1.122-2.5-2.5v-40.61c0-1.378 1.122-2.5 2.5-2.5h40.609c1.378 0 2.5 1.122 2.5 2.5z"/><path d="m107.077 344.996c0 9.649 7.851 17.5 17.5 17.5h40.61c9.649 0 17.5-7.851 17.5-17.5v-40.61c0-9.649-7.851-17.5-17.5-17.5h-40.61c-9.649 0-17.5 7.851-17.5 17.5zm15-40.61c0-1.378 1.122-2.5 2.5-2.5h40.61c1.378 0 2.5 1.122 2.5 2.5v40.61c0 1.378-1.122 2.5-2.5 2.5h-40.61c-1.378 0-2.5-1.122-2.5-2.5z"/><path d="m293.805 304.386c0-9.649-7.851-17.5-17.5-17.5h-40.609c-9.649 0-17.5 7.851-17.5 17.5v40.61c0 9.649 7.851 17.5 17.5 17.5h40.609c9.649 0 17.5-7.851 17.5-17.5zm-15 40.61c0 1.378-1.122 2.5-2.5 2.5h-40.609c-1.378 0-2.5-1.122-2.5-2.5v-40.61c0-1.378 1.122-2.5 2.5-2.5h40.609c1.378 0 2.5 1.122 2.5 2.5z"/><path d="m107.077 449.042c0 9.649 7.851 17.5 17.5 17.5h40.61c9.649 0 17.5-7.851 17.5-17.5v-40.609c0-9.649-7.851-17.5-17.5-17.5h-40.61c-9.649 0-17.5 7.851-17.5 17.5zm15-40.609c0-1.378 1.122-2.5 2.5-2.5h40.61c1.378 0 2.5 1.122 2.5 2.5v40.609c0 1.378-1.122 2.5-2.5 2.5h-40.61c-1.378 0-2.5-1.122-2.5-2.5z"/><path d="m276.305 390.933h-40.609c-9.649 0-17.5 7.851-17.5 17.5v40.609c0 9.649 7.851 17.5 17.5 17.5h40.609c9.649 0 17.5-7.851 17.5-17.5v-40.609c0-9.649-7.851-17.5-17.5-17.5zm2.5 58.109c0 1.378-1.122 2.5-2.5 2.5h-40.609c-1.378 0-2.5-1.122-2.5-2.5v-40.609c0-1.378 1.122-2.5 2.5-2.5h40.609c1.378 0 2.5 1.122 2.5 2.5z"/><path d="m404.923 200.339c0-9.649-7.851-17.5-17.5-17.5h-40.61c-9.649 0-17.5 7.851-17.5 17.5v40.61c0 9.649 7.851 17.5 17.5 17.5h40.61c9.649 0 17.5-7.851 17.5-17.5zm-15 40.61c0 1.378-1.122 2.5-2.5 2.5h-40.61c-1.378 0-2.5-1.122-2.5-2.5v-40.61c0-1.378 1.122-2.5 2.5-2.5h40.61c1.378 0 2.5 1.122 2.5 2.5z"/><path d="m336.813 359.618c-4.142 0-7.5 3.358-7.5 7.5v81.823c0 9.706 7.896 17.602 17.602 17.602h40.407c9.706 0 17.602-7.896 17.602-17.602v-144.453c0-9.706-7.896-17.602-17.602-17.602h-40.407c-9.706 0-17.602 7.896-17.602 17.602v27.274c0 4.142 3.358 7.5 7.5 7.5s7.5-3.358 7.5-7.5v-27.274c0-1.435 1.167-2.602 2.602-2.602h40.407c1.435 0 2.602 1.167 2.602 2.602v144.453c0 1.435-1.167 2.602-2.602 2.602h-40.407c-1.435 0-2.602-1.167-2.602-2.602v-81.823c0-4.142-3.358-7.5-7.5-7.5z"/><path d="m415.605 0h-319.21c-13.048 0-23.663 10.615-23.663 23.663v260.622c0 4.142 3.358 7.5 7.5 7.5s7.5-3.358 7.5-7.5v-260.622c0-4.776 3.886-8.663 8.663-8.663h319.211c4.776 0 8.663 3.886 8.663 8.663v123.24c0 4.142 3.358 7.5 7.5 7.5s7.5-3.358 7.5-7.5v-123.24c-.001-13.048-10.616-23.663-23.664-23.663z"/><path d="m431.768 174.758c-4.142 0-7.5 3.358-7.5 7.5v306.079c0 4.776-3.886 8.663-8.663 8.663h-319.21c-4.776 0-8.663-3.886-8.663-8.663v-168.697c0-4.142-3.358-7.5-7.5-7.5s-7.5 3.358-7.5 7.5v168.697c0 13.048 10.615 23.663 23.663 23.663h319.211c13.047 0 23.663-10.615 23.663-23.663v-306.079c-.001-4.142-3.359-7.5-7.501-7.5z"/></svg>