<svg height="511pt" viewBox="-20 0 511 511.9997" width="511pt" xmlns="http://www.w3.org/2000/svg"><path d="m413.664062 344.378906v-24.570312c0-8.132813-6.621093-14.75-14.753906-14.75h-155.4375v-26.378906c32.863282-.617188 112.414063-8.308594 112.414063-40.117188 0-7.75 0-193.664062 0-198.730469 0-.007812 0-.019531 0-.03125 0-25.945312-54.980469-37.652343-102.0625-39.7929685-4.140625-.1796875-7.652344 3.0156255-7.839844 7.1562495-.1875 4.140626 3.015625 7.652344 7.15625 7.839844 57.890625 2.632813 87.699219 17.351563 87.734375 24.789063v.007812c0 8.132813-36.269531 25.1875-104.90625 25.1875-66.511719 0-104.90625-16.449219-104.90625-25.1875 0-7.085937 28.597656-22.105469 87.734375-24.796875 4.140625-.1875 7.34375-3.699218 7.15625-7.839844-.1875-4.140624-3.722656-7.347656-7.839844-7.1562495-47.082031 2.1445315-102.0625 13.8515625-102.0625 39.7929685v198.761719c0 31.933594 79.878907 39.507812 112.414063 40.121094v26.375h-155.4375c-8.132813 0-14.75 6.617187-14.75 14.75v24.570312c-19.691406.824219-57.777344 6.570313-57.777344 26.25v114.945313c0 35.238281 130.5625 35.230469 130.5625 0 0-121.671875.027344-115.09375-.046875-115.78125-.949219-16.144531-29.128906-24.21875-57.726563-25.414063v-24.3125h155.175782v24.3125c-28.597656 1.195313-56.78125 9.265625-57.726563 25.414063-.03125.273437-.050781.550781-.050781.835937v114.945313c0 35.238281 130.5625 35.226562 130.5625 0 0-11.476563 0-102.523438 0-114.945313 0-.285156-.019531-.5625-.046875-.835937-.949219-16.144531-29.132813-24.21875-57.730469-25.414063v-24.3125h155.179688v24.3125c-19.691406.824219-57.777344 6.570313-57.777344 26.25v114.945313c0 12.898437 17.566406 22.425781 46.992188 25.484375 4.140624.425781 7.8125-2.566406 8.242187-6.691406.429687-4.121094-2.566406-7.8125-6.691406-8.242188-22.925781-2.382812-32.457031-8.609375-33.53125-10.761719v-20.449219c25.285156 11.746094 75.648437 11.566407 100.539062 0v20.449219c-1.070312 2.152344-10.605469 8.378907-33.53125 10.761719-4.125.429688-7.117187 4.121094-6.691406 8.242188.429687 4.125 4.121094 7.121093 8.242187 6.691406 29.425782-3.058594 46.992188-12.585938 46.992188-25.484375 0-11.476563 0-102.523438 0-114.945313 0-19.679687-38.085938-25.429687-57.773438-26.25zm-282.601562-217.5c45.023438 26.066406 165.972656 25.574219 209.8125 0v45.429688c0 8.257812-36.734375 25.183594-104.90625 25.183594-66.507812 0-104.90625-16.445313-104.90625-25.183594zm209.8125-66.253906v45.429688c0 8.257812-36.734375 25.183593-104.90625 25.183593-66.507812 0-104.90625-16.445312-104.90625-25.183593v-45.429688c57.035156 28.519531 170.78125 23.121094 209.8125 0zm-209.8125 177.933594v-45.425782c44.554688 25.792969 165.621094 25.777344 209.8125 0v45.425782c0 8.25-36.699219 25.1875-104.90625 25.1875-66.621094 0-104.90625-16.488282-104.90625-25.1875zm-15.011719 149.726562v20.449219c-.117187.246094-.277343.449219-.445312.644531-.011719.015625-.019531.027344-.03125.042969-4.914063 5.523437-29.347657 12.738281-61.644531 10.515625-23.933594-1.679688-36.996094-8.195312-38.417969-11.203125v-20.449219c25.507812 11.863282 76.171875 11.316406 100.539062 0zm0 38.316406v20.449219c-2.933593 6.199219-26.550781 10.082031-33.96875 10.828125-36.105469 3.617188-64.074219-5.554687-66.570312-10.828125v-20.449219c24.128906 11.222657 74.824219 11.945313 100.539062 0zm0 58.765626c-1.617187 3.398437-18.5 11.605468-50.269531 11.605468s-48.652344-8.207031-50.269531-11.605468v-20.453126c24.183593 11.25 74.863281 11.929688 100.539062 0zm-.117187-114.746094c-8.507813 14.222656-90.664063 15.582031-100.304688 0 2.191406-3.519532 19.027344-11.394532 50.152344-11.394532s47.957031 7.875 50.152344 11.394532zm170.304687 17.664062v20.449219c-1.484375 3.136719-15.054687 9.667969-39.050781 11.25-35.089844 2.316406-59.289062-6.617187-61.488281-11.25v-20.449219c25.898437 12.03125 76.355469 11.246094 100.539062 0zm0 38.316406v20.449219c-2.933593 6.195313-33.128906 14.164063-66.566406 10.828125-18.765625-1.878906-32.375-7.460937-33.972656-10.828125v-20.449219c25.066406 11.644532 75.515625 11.636719 100.539062 0zm0 58.765626c-1.617187 3.398437-18.5 11.605468-50.269531 11.605468-31.765625 0-48.648438-8.207031-50.269531-11.605468v-20.453126c25.015625 11.621094 75.472656 11.660157 100.539062 0zm-.117187-114.746094c-.320313.515625-.859375 1-1.339844 1.378906-20.828125 16.335938-91.625 10.417969-98.964844-1.378906 2.191406-3.519532 19.027344-11.394532 50.152344-11.394532 31.121094 0 47.957031 7.875 50.152344 11.394532zm170.304687 55.980468v20.449219c-2.777343 5.875-24.78125 9.742188-31.609375 10.570313-35.894531 4.207031-66.25-4.9375-68.929687-10.570313v-20.449219c24.144531 11.230469 74.839843 11.9375 100.539062 0zm0-38.316406v20.449219c-.417969.878906-1.691406 1.796875-2.507812 2.328125-25.640625 16.59375-93.070313 8.148438-98.03125-2.328125v-20.449219c24.257812 11.28125 74.898437 11.910156 100.539062 0zm-50.269531-29.058594c31.125 0 47.960938 7.878907 50.152344 11.394532-8.960938 14.398437-91.121094 14.847656-100.304688 0 2.195313-3.519532 19.03125-11.394532 50.152344-11.394532zm0 0"/></svg>