<svg height="512pt" viewBox="-16 0 512 512" width="512pt" xmlns="http://www.w3.org/2000/svg"><path d="m69.871094 176.148438 110.230468-96.359376 95.140626 81.472657c5.949218 5.097656 14.816406 4.753906 20.359374-.78125l109.398438-109.292969v23.753906c0 8.285156 6.714844 15 15 15s15-6.714844 15-15v-59.941406c0-8.285156-6.714844-15-15-15h-60c-8.285156 0-15 6.714844-15 15s6.714844 15 15 15h23.761719l-99.546875 99.449219-94.457032-80.886719c-5.660156-4.84375-14.019531-4.804688-19.628906.101562l-120 104.898438c-6.238281 5.449219-6.875 14.925781-1.421875 21.164062 5.453125 6.238282 14.929688 6.871094 21.164063 1.421876zm0 0"/><path d="m465 209.796875h-450c-8.285156 0-15 6.714844-15 15v272.203125c0 8.285156 6.714844 15 15 15h450c8.285156 0 15-6.714844 15-15v-272.203125c0-8.285156-6.714844-15-15-15zm-104.246094 272.203125h-241.507812c-5.628906-47.027344-42.515625-84.59375-89.246094-91.304688v-62.0625c45.910156-6.589843 82.320312-42.964843 88.921875-88.835937h242.15625c6.601563 45.871094 43.011719 82.246094 88.921875 88.835937v62.0625c-46.730469 6.710938-83.617188 44.277344-89.246094 91.304688zm89.246094-183.800781c-29.339844-5.96875-52.503906-29.101563-58.488281-58.402344h58.488281zm-361.511719-58.402344c-5.984375 29.300781-29.148437 52.433594-58.488281 58.402344v-58.402344zm-58.488281 181.332031c30.15625 6.136719 53.769531 30.410156 58.929688 60.871094h-58.929688zm361.070312 60.871094c5.160157-30.460938 28.773438-54.734375 58.929688-60.871094v60.871094zm0 0"/><path d="m240 269.738281c-49.625 0-90 40.339844-90 89.925781 0 49.585938 40.375 89.929688 90 89.929688s90-40.34375 90-89.929688c0-49.585937-40.375-89.925781-90-89.925781zm0 149.855469c-33.085938 0-60-26.886719-60-59.929688 0-33.042968 26.914062-59.925781 60-59.925781s60 26.882813 60 59.925781c0 33.042969-26.914062 59.929688-60 59.929688zm0 0"/></svg>