<svg id="Capa_1" enable-background="new 0 0 512.001 512.001" height="512" viewBox="0 0 512.001 512.001" width="512" xmlns="http://www.w3.org/2000/svg"><g><path d="m510.855 287.177-46.756-74.596v-21.986c22.175-3.599 39.162-22.875 39.162-46.051 0-23.177-16.987-42.452-39.162-46.052v-28.889c0-4.142-3.358-7.5-7.5-7.5h-101.423v-4.117c0-9.608-7.817-17.425-17.425-17.425h-9.904c-2.511-6.543-8.843-11.208-16.258-11.208h-39.589c-4.142 0-7.5 3.358-7.5 7.5s3.358 7.5 7.5 7.5h39.589c1.337 0 2.425 1.088 2.425 2.425v45.652c0 1.337-1.088 2.425-2.425 2.425h-96.922c-4.142 0-7.5 3.358-7.5 7.5s3.358 7.5 7.5 7.5h96.922c7.416 0 13.748-4.665 16.258-11.208h9.904c9.608 0 17.425-7.817 17.425-17.425v-4.118h93.922v21.389c-22.175 3.599-39.162 22.875-39.162 46.052 0 23.176 16.987 42.452 39.162 46.051v24.143c0 1.409.397 2.79 1.145 3.983l47.901 76.423c1.424 2.271 3.865 3.518 6.362 3.518 1.36 0 2.738-.37 3.976-1.146 3.511-2.202 4.573-6.83 2.373-10.34zm-170.679-205.956c0 1.337-1.088 2.425-2.425 2.425h-8.738v-28.085h8.738c1.337 0 2.425 1.088 2.425 2.425zm84.761 63.322c0-17.459 14.204-31.663 31.662-31.663s31.662 14.204 31.662 31.663c0 17.458-14.204 31.662-31.662 31.662s-31.662-14.203-31.662-31.662z"/><path d="m118.175 196.917c-2.929-2.929-7.678-2.929-10.606 0-2.929 2.929-2.929 7.678 0 10.606l3.366 3.366-3.366 3.366c-2.929 2.929-2.929 7.678 0 10.606 1.464 1.464 3.384 2.197 5.303 2.197s3.839-.732 5.303-2.197l3.366-3.366 3.366 3.366c1.464 1.464 3.384 2.197 5.303 2.197s3.839-.732 5.303-2.197c2.929-2.929 2.929-7.678 0-10.606l-3.366-3.366 3.366-3.366c2.929-2.929 2.929-7.678 0-10.606-2.929-2.929-7.678-2.929-10.606 0l-3.366 3.366z"/><path d="m476.359 144.543c0-4.142-3.358-7.5-7.5-7.5h-24.521c-4.142 0-7.5 3.358-7.5 7.5s3.358 7.5 7.5 7.5h24.521c4.142 0 7.5-3.357 7.5-7.5z"/><path d="m464.099 333.354v-38.379c0-4.142-3.358-7.5-7.5-7.5s-7.5 3.358-7.5 7.5v38.393c-14.402 2.328-26.99 11.26-33.891 24.499-1.915 3.673-.489 8.203 3.184 10.118 3.675 1.914 8.203.489 10.118-3.184 5.484-10.521 16.247-17.058 28.089-17.058 17.458 0 31.662 14.204 31.662 31.662s-14.204 31.662-31.662 31.662c-12.481 0-23.835-7.375-28.925-18.788-1.687-3.783-6.119-5.484-9.904-3.795-3.783 1.687-5.482 6.121-3.795 9.904 6.463 14.493 19.788 24.559 35.124 27.063v22.878h-96.662c-3.253-11.148-13.559-19.318-25.744-19.318-7.583 0-14.436 3.169-19.318 8.245-4.883-5.077-11.736-8.245-19.319-8.245s-14.436 3.169-19.319 8.245c-4.883-5.077-11.735-8.245-19.318-8.245s-14.436 3.169-19.319 8.245c-4.883-5.077-11.736-8.245-19.319-8.245s-14.436 3.169-19.318 8.245c-4.883-5.077-11.736-8.245-19.319-8.245-12.185 0-22.49 8.171-25.744 19.318h-96.662v-42.805h10.357c4.142 0 7.5-3.358 7.5-7.5s-3.358-7.5-7.5-7.5h-35.715c-4.142 0-7.5 3.358-7.5 7.5s3.358 7.5 7.5 7.5h10.357v50.305c0 4.142 3.358 7.5 7.5 7.5h104.163c3.253 11.148 13.559 19.319 25.744 19.319 7.583 0 14.436-3.169 19.319-8.245 4.883 5.077 11.735 8.245 19.318 8.245s14.436-3.169 19.319-8.246c4.883 5.077 11.736 8.246 19.319 8.246s14.436-3.169 19.318-8.245c4.883 5.077 11.736 8.245 19.319 8.245s14.436-3.169 19.319-8.245c4.883 5.077 11.735 8.245 19.318 8.245 12.185 0 22.49-8.171 25.744-19.319h104.162c4.142 0 7.5-3.358 7.5-7.5v-30.374c22.175-3.599 39.162-22.875 39.162-46.051s-16.987-42.451-39.162-46.05zm-291.955 134.295c-6.517 0-11.819-5.302-11.819-11.819s5.302-11.818 11.819-11.818 11.819 5.302 11.819 11.818c-.001 6.517-5.302 11.819-11.819 11.819zm38.637 0c-6.517 0-11.818-5.302-11.818-11.819s5.302-11.818 11.818-11.818c6.517 0 11.819 5.302 11.819 11.818 0 6.517-5.302 11.819-11.819 11.819zm38.637 0c-6.517 0-11.819-5.302-11.819-11.819s5.302-11.818 11.819-11.818 11.818 5.302 11.818 11.818c.001 6.517-5.301 11.819-11.818 11.819zm38.638 0c-6.517 0-11.819-5.302-11.819-11.819s5.302-11.818 11.819-11.818 11.819 5.302 11.819 11.818c0 6.517-5.302 11.819-11.819 11.819zm38.637 0c-6.517 0-11.818-5.302-11.818-11.819s5.302-11.818 11.818-11.818c6.517 0 11.819 5.302 11.819 11.818 0 6.517-5.302 11.819-11.819 11.819z"/><path d="m456.599 359.645c-4.142 0-7.5 3.358-7.5 7.5v4.76h-4.76c-4.142 0-7.5 3.358-7.5 7.5s3.358 7.5 7.5 7.5h4.76v4.761c0 4.142 3.358 7.5 7.5 7.5s7.5-3.358 7.5-7.5v-4.761h4.761c4.142 0 7.5-3.358 7.5-7.5s-3.358-7.5-7.5-7.5h-4.761v-4.76c0-4.143-3.358-7.5-7.5-7.5z"/><path d="m76.976 374.645c4.142 0 7.5-3.358 7.5-7.5s-3.358-7.5-7.5-7.5h-27.238v-54.272h71.804c4.142 0 7.5-3.358 7.5-7.5v-40.93c22.175-3.599 39.162-22.875 39.162-46.051s-16.987-42.452-39.162-46.051v-29.051c0-4.142-3.358-7.5-7.5-7.5h-71.804v-51.187h93.078v15.326c0 9.608 7.817 17.425 17.425 17.425h20.426c4.142 0 7.5-3.358 7.5-7.5s-3.358-7.5-7.5-7.5h-20.427c-1.337 0-2.425-1.088-2.425-2.425v-45.652c0-1.337 1.088-2.425 2.425-2.425h77.76c4.142 0 7.5-3.358 7.5-7.5s-3.358-7.5-7.5-7.5h-77.76c-9.608 0-17.425 7.817-17.425 17.425v15.326h-100.577c-4.142 0-7.5 3.358-7.5 7.5v290.042h-27.238c-4.142 0-7.5 3.358-7.5 7.5s3.358 7.5 7.5 7.5zm76.228-163.753c0 17.458-14.204 31.662-31.662 31.662-17.459 0-31.663-14.204-31.663-31.662s14.204-31.662 31.663-31.662c17.458-.001 31.662 14.203 31.662 31.662zm-39.162-67.603v21.551c-22.176 3.599-39.163 22.875-39.163 46.051s16.987 42.452 39.163 46.051v33.43h-64.304v-147.083z"/></g></svg>