<?xml version="1.0" encoding="iso-8859-1"?>
<!-- Generator: Adobe Illustrator 19.0.0, SVG Export Plug-In . SVG Version: 6.00 Build 0)  -->
<svg version="1.1" id="Capa_1" xmlns="http://www.w3.org/2000/svg" xmlns:xlink="http://www.w3.org/1999/xlink" x="0px" y="0px"
	 viewBox="0 0 512 512" style="enable-background:new 0 0 512 512;" xml:space="preserve">
<g>
	<g>
		<path d="M504.5,318.253c4.143,0,7.5-3.357,7.5-7.5c0-1.949,0-192.548,0-194.496c0-12.176-9.907-22.081-22.083-22.081H280.302
			c-3.002,0-255.17,0-258.221,0C9.906,94.176,0,104.081,0,116.257c0,11.968,0,267.426,0,279.486
			c0,12.176,9.906,22.081,22.081,22.081c7.191,0,453.877,0,467.835,0c12.177,0,22.083-9.906,22.083-22.081v-58.988
			c0-4.143-3.357-7.5-7.5-7.5c-4.143,0-7.5,3.357-7.5,7.5v58.988c0,3.904-3.177,7.08-7.082,7.08H287.802V287.804h209.197v22.948
			C496.999,314.896,500.356,318.253,504.5,318.253z M287.802,109.177h202.114c3.905,0,7.082,3.176,7.082,7.08v107.941H287.802
			V109.177z M224.196,402.823H22.081c-3.904,0-7.08-3.176-7.08-7.08V287.804h209.195V402.823z M280.302,272.805L280.302,272.805
			c-4.143-0.001-7.5,3.356-7.5,7.499v122.519h-33.606V280.304c0-4.143-3.357-7.5-7.5-7.5H15.001v-33.606h39.513
			c4.143,0,7.5-3.357,7.5-7.5s-3.357-7.5-7.5-7.5H15.001v-107.94c0-3.904,3.176-7.08,7.08-7.08h202.114v115.021H80.182
			c-4.143,0-7.5,3.357-7.5,7.5s3.357,7.5,7.5,7.5h151.514c4.143,0,7.5-3.357,7.5-7.5V109.177h33.606v122.521
			c0,4.143,3.357,7.5,7.5,7.5H497v33.606H280.302z"/>
	</g>
</g>
<g>
</g>
<g>
</g>
<g>
</g>
<g>
</g>
<g>
</g>
<g>
</g>
<g>
</g>
<g>
</g>
<g>
</g>
<g>
</g>
<g>
</g>
<g>
</g>
<g>
</g>
<g>
</g>
<g>
</g>
</svg>
