<?xml version="1.0" encoding="iso-8859-1"?>
<!-- Generator: Adobe Illustrator 19.0.0, SVG Export Plug-In . SVG Version: 6.00 Build 0)  -->
<svg version="1.1" id="Layer_1" xmlns="http://www.w3.org/2000/svg" xmlns:xlink="http://www.w3.org/1999/xlink" x="0px" y="0px"
	 viewBox="0 0 512 512" style="enable-background:new 0 0 512 512;" xml:space="preserve">
<path style="fill:#E2E2E2;" d="M504.5,395.743c0,8.053-6.529,14.581-14.583,14.581H22.081c-8.051,0-14.581-6.527-14.581-14.581
	V116.257c0-8.053,6.529-14.581,14.581-14.581h467.835c8.053,0,14.583,6.527,14.583,14.581V395.743z"/>
<path style="fill:#EFEDED;" d="M489.917,101.676H137.584c-47.564,111.051-9.077,241.595,93.82,308.648h258.512
	c8.053,0,14.583-6.527,14.583-14.581V116.257C504.5,108.204,497.97,101.676,489.917,101.676z"/>
<polygon style="fill:#C93F3F;" points="504.5,231.698 280.302,231.698 280.302,101.676 231.696,101.676 231.696,231.698 
	7.5,231.698 7.5,280.304 231.696,280.304 231.696,410.324 280.302,410.324 280.302,280.304 504.5,280.304 "/>
<path style="fill:#ED4343;" d="M280.302,101.676h-48.607v130.022H119.403c2.101,16.774,5.861,33.032,11.111,48.607h101.182v130.02
	h48.607V280.304h224.198v-48.607H280.302V101.676z"/>
<path d="M489.917,94.176H280.302c-3.002,0-255.17,0-258.221,0C9.906,94.176,0,104.081,0,116.257c0,11.968,0,267.426,0,279.486
	c0,12.176,9.906,22.081,22.081,22.081c7.191,0,453.877,0,467.835,0c12.177,0,22.083-9.906,22.083-22.081v-58.988
	c0-4.143-3.357-7.5-7.5-7.5s-7.5,3.357-7.5,7.5v58.988c0,3.904-3.177,7.08-7.082,7.08H287.802V287.804h209.197v22.948
	c0,4.143,3.357,7.5,7.5,7.5s7.5-3.357,7.5-7.5c0-1.949,0-192.548,0-194.496C512,104.081,502.093,94.176,489.917,94.176z
	 M496.999,116.257v107.941H287.802V109.177h202.114C493.822,109.177,496.999,112.353,496.999,116.257z M15.001,395.743V287.804
	h209.195v115.019H22.081C18.177,402.823,15.001,399.647,15.001,395.743z M280.302,272.804c-4.143,0-7.5,3.357-7.5,7.5v122.519
	h-33.606V280.304c0-4.143-3.357-7.5-7.5-7.5H15.001v-33.606h39.513c4.143,0,7.5-3.357,7.5-7.5s-3.357-7.5-7.5-7.5H15.001v-107.94
	c0-3.904,3.176-7.08,7.08-7.08h202.114v115.021H80.182c-4.143,0-7.5,3.357-7.5,7.5s3.357,7.5,7.5,7.5h151.514
	c4.143,0,7.5-3.357,7.5-7.5V109.177h33.606v122.521c0,4.143,3.357,7.5,7.5,7.5H497v33.606H280.302V272.804z"/>
<g>
</g>
<g>
</g>
<g>
</g>
<g>
</g>
<g>
</g>
<g>
</g>
<g>
</g>
<g>
</g>
<g>
</g>
<g>
</g>
<g>
</g>
<g>
</g>
<g>
</g>
<g>
</g>
<g>
</g>
</svg>
