<?xml version="1.0" encoding="iso-8859-1"?>
<!-- Generator: Adobe Illustrator 19.0.0, SVG Export Plug-In . SVG Version: 6.00 Build 0)  -->
<svg version="1.1" id="Layer_1" xmlns="http://www.w3.org/2000/svg" xmlns:xlink="http://www.w3.org/1999/xlink" x="0px" y="0px"
	 viewBox="0 0 512 512" style="enable-background:new 0 0 512 512;" xml:space="preserve">
<g>
	<g>
		<path d="M306.867,201.064h-0.024c-3.415,0-6.473,2.145-7.602,5.368c-6.692,19.105-25.699,32.472-47.46,30.514
			c-22.107-1.989-39.796-19.964-41.46-42.097c-2.017-26.843,19.254-49.333,45.679-49.333c18.714,0,34.842,11.281,41.943,27.4
			c1.31,2.972,4.192,4.938,7.44,4.938c5.873,0,9.726-6.044,7.359-11.419c-9.885-22.457-32.71-37.98-58.984-37.047
			c-32.004,1.135-58.164,26.976-59.667,58.965c-1.67,35.521,26.747,64.953,61.909,64.953c27.048,0,50.098-17.417,58.538-41.624
			C316.351,206.481,312.374,201.064,306.867,201.064z"/>
	</g>
</g>
<g>
	<g>
		<path d="M482.358,102.4C498.702,102.4,512,89.103,512,72.758c0-16.345-13.298-29.642-29.642-29.642
			c-13.542,0-24.983,9.132-28.513,21.558h-64.493c-4.226-5.342-8.796-10.467-13.702-15.342C343.632,17.52,301.138,0,256,0
			c-44.162,0-86.748,16.752-119.913,47.17c-2.39,2.191-4.695,4.439-6.933,6.725h-71c-3.529-12.426-14.971-21.558-28.513-21.558
			C13.298,32.337,0,45.634,0,61.979c0,16.345,13.298,29.642,29.642,29.642c13.542,0,24.983-9.132,28.513-21.558h57.008
			c-18.866,24.802-29.517,53.223-29.896,81.09c-0.001,0.037-0.001,0.073-0.001,0.111v50.959c0,0.658-0.157,1.315-0.455,1.901
			l-22.017,43.448c-5.325,10.509-4.823,22.778,1.345,32.816c6.168,10.04,16.883,16.033,28.666,16.033
			c2.32,0,4.207,1.887,4.207,4.207v33.519H72.758c-4.466,0-8.084,3.62-8.084,8.084v78.147h-6.519
			c-3.529-12.426-14.971-21.558-28.513-21.558C13.298,398.821,0,412.118,0,428.463c0,16.345,13.298,29.642,29.642,29.642
			c13.542,0,24.983-9.132,28.513-21.558h14.603c4.466,0,8.084-3.62,8.084-8.084v-78.147h16.168v11.961
			c0,11.235,9.141,20.375,20.375,20.375h40.09c2.32,0,4.207,1.887,4.207,4.207v104.764C161.684,502.859,170.825,512,182.06,512
			h190.995c11.236,0,20.377-9.141,20.377-20.375v-98.193h49.635c3.529,12.426,14.971,21.558,28.512,21.558
			c16.344,0,29.642-13.297,29.642-29.642c0-16.345-13.298-29.642-29.642-29.642c-13.542,0-24.983,9.132-28.512,21.558h-49.635
			v-23.176c0-0.245,0.022-0.488,0.065-0.732l31.952-181.06v-0.001c0.219-1.239,0.326-2.491,0.317-3.722
			c-0.218-31.467-8.958-61.591-25.089-87.73h53.17C457.374,93.268,468.816,102.4,482.358,102.4z M482.358,59.284
			c7.43,0,13.474,6.044,13.474,13.474s-6.044,13.474-13.474,13.474s-13.474-6.044-13.474-13.474
			C468.884,65.328,474.928,59.284,482.358,59.284z M29.642,75.453c-7.43,0-13.474-6.044-13.474-13.474s6.044-13.474,13.474-13.474
			c7.43,0,13.474,6.044,13.474,13.474S37.072,75.453,29.642,75.453z M29.642,441.937c-7.43,0-13.474-6.044-13.474-13.474
			s6.044-13.474,13.474-13.474c7.43,0,13.474,6.044,13.474,13.474S37.072,441.937,29.642,441.937z M471.579,371.874
			c7.43,0,13.474,6.044,13.474,13.474s-6.044,13.474-13.474,13.474s-13.474-6.044-13.474-13.474S464.149,371.874,471.579,371.874z
			 M256,16.168c43.941,0,83.724,18.68,111.792,48.505h-47.118c-4.466,0-8.084,3.62-8.084,8.084v34.898
			c-5.654-3.832-11.67-7.086-17.962-9.693c-1.618-0.67-2.664-2.278-2.664-4.094V83.082c0-11.388-9.266-20.654-20.654-20.654H240.69
			c-11.388,0-20.654,9.266-20.654,20.654v10.785c0,1.817-1.047,3.424-2.665,4.095c-2.439,1.01-4.831,2.128-7.182,3.326v-39.31
			c0-4.465-3.618-8.084-8.084-8.084h-49.108C179.967,31.319,215.74,16.168,256,16.168z M340.124,180.249
			c0.481,3.662,0.725,7.388,0.725,11.078c0,3.706-0.243,7.439-0.721,11.093c-1.083,8.256,2.903,16.297,10.156,20.483l9.357,5.402
			c1.037,0.599,1.779,1.566,2.089,2.724c0.31,1.157,0.151,2.366-0.448,3.404l-15.31,26.519c-0.599,1.037-1.566,1.78-2.723,2.089
			c-1.157,0.309-2.364,0.151-3.403-0.448l-9.363-5.406c-7.262-4.192-16.226-3.618-22.837,1.461
			c-5.897,4.531-12.358,8.266-19.205,11.102c-7.682,3.182-12.645,10.653-12.645,19.032v10.789c0,2.473-2.011,4.485-4.485,4.485
			h-30.621c-2.474,0-4.485-2.012-4.485-4.485v-10.786c0-8.377-4.963-15.848-12.643-19.031c-6.839-2.834-13.299-6.571-19.201-11.106
			c-3.668-2.82-8.062-4.252-12.485-4.252c-3.551,0-7.121,0.922-10.353,2.789l-9.368,5.409c-1.038,0.599-2.246,0.758-3.403,0.448
			c-1.157-0.309-2.125-1.052-2.723-2.089l-15.311-26.518c-1.235-2.142-0.5-4.891,1.642-6.128l9.365-5.406
			c7.255-4.191,11.241-12.236,10.153-20.496c-0.481-3.662-0.725-7.388-0.725-11.078c0-3.706,0.242-7.439,0.721-11.093
			c1.083-8.256-2.903-16.297-10.156-20.483l-9.357-5.402c-1.037-0.599-1.779-1.566-2.089-2.724c-0.31-1.157-0.151-2.366,0.448-3.404
			l15.31-26.519c0.599-1.037,1.566-1.78,2.723-2.089c1.154-0.31,2.364-0.152,3.403,0.448l9.363,5.405
			c7.262,4.193,16.227,3.62,22.838-1.461c0.314-0.241,0.636-0.471,0.953-0.708c1.058-0.457,1.994-1.138,2.762-1.978
			c4.863-3.337,10.054-6.167,15.49-8.418c7.682-3.182,12.645-10.653,12.645-19.032V83.082c0-2.473,2.011-4.485,4.485-4.485h30.621
			c2.474,0,4.485,2.012,4.485,4.485v10.786c0,8.377,4.963,15.848,12.643,19.031c6.837,2.833,13.297,6.57,19.201,11.106
			c6.613,5.084,15.579,5.658,22.838,1.463l9.368-5.409c1.039-0.598,2.246-0.759,3.403-0.448c1.157,0.31,2.125,1.052,2.723,2.089
			l15.311,26.518c1.235,2.142,0.5,4.891-1.642,6.128l-9.365,5.406C343.021,163.943,339.036,171.99,340.124,180.249z M92.804,280.253
			c-6.119,0-11.685-3.113-14.889-8.328s-3.464-11.586-0.697-17.045l22.017-43.448c1.439-2.841,2.2-6.025,2.2-9.21v-50.901
			c0.397-27.836,13.235-57.103,34.835-81.258h57.751v41.435c-1.342,0.771-3.018,0.774-4.42-0.036l-9.363-5.405
			c-4.777-2.758-10.341-3.491-15.673-2.063c-5.328,1.427-9.782,4.845-12.54,9.622l-15.31,26.518
			c-2.759,4.778-3.491,10.344-2.064,15.674c1.428,5.328,4.845,9.783,9.623,12.541l9.357,5.402c1.572,0.908,2.439,2.627,2.209,4.381
			c-0.569,4.35-0.858,8.789-0.858,13.193c0,4.391,0.291,8.827,0.864,13.187c0.231,1.755-0.636,3.476-2.209,4.384l-9.364,5.406
			c-9.862,5.695-13.254,18.35-7.56,28.214l15.312,26.519c2.758,4.777,7.211,8.195,12.54,9.622
			c5.329,1.428,10.894,0.696,15.673-2.063l9.368-5.409c1.575-0.909,3.498-0.799,4.902,0.28c7.024,5.398,14.715,9.848,22.863,13.224
			c1.618,0.67,2.663,2.278,2.663,4.094v10.786c0,11.388,9.266,20.654,20.654,20.654h7.249c-0.009,0.15-0.023,0.297-0.023,0.449
			v13.473H113.179v-33.519C113.179,289.393,104.038,280.253,92.804,280.253z M377.263,491.625c0,2.32-1.887,4.207-4.207,4.207
			H182.06c-2.32,0-4.207-1.887-4.207-4.207V386.861c0-11.236-9.141-20.377-20.375-20.377h-40.09c-2.32,0-4.207-1.887-4.207-4.207
			v-11.961h134.737v35.032c0,4.465,3.618,8.084,8.084,8.084h121.262V491.625z M409.596,168.684c0.002,0.254-0.023,0.525-0.07,0.802
			v-0.001l-31.951,181.052c-0.206,1.165-0.311,2.359-0.311,3.549v23.177H264.084v-35.032v-21.558c0-0.152-0.014-0.3-0.023-0.45
			h7.249c11.388,0,20.654-9.266,20.654-20.654v-10.789c0-1.817,1.047-3.424,2.665-4.095c8.155-3.378,15.849-7.826,22.869-13.219
			c1.405-1.078,3.327-1.188,4.902-0.279l9.363,5.406c4.777,2.758,10.342,3.491,15.673,2.063c5.328-1.427,9.782-4.845,12.54-9.622
			l15.31-26.518c2.759-4.778,3.491-10.343,2.064-15.674c-1.428-5.328-4.845-9.783-9.623-12.541l-9.357-5.402
			c-1.572-0.908-2.439-2.627-2.209-4.381c0.569-4.35,0.858-8.789,0.858-13.193c0-4.391-0.291-8.827-0.864-13.187
			c-0.231-1.755,0.636-3.476,2.209-4.384l9.364-5.406c9.862-5.695,13.254-18.35,7.56-28.214l-15.312-26.519
			c-2.758-4.777-7.211-8.195-12.54-9.622c-5.329-1.428-10.894-0.695-15.673,2.063l-3.004,1.735v-26.95h52.321
			C398.823,105.693,409.37,136.003,409.596,168.684z"/>
	</g>
</g>
<g>
</g>
<g>
</g>
<g>
</g>
<g>
</g>
<g>
</g>
<g>
</g>
<g>
</g>
<g>
</g>
<g>
</g>
<g>
</g>
<g>
</g>
<g>
</g>
<g>
</g>
<g>
</g>
<g>
</g>
</svg>
