<svg id="Capa_1" enable-background="new 0 0 512 512" height="512" viewBox="0 0 512 512" width="512" xmlns="http://www.w3.org/2000/svg"><path d="m472.435 312.113-264.435-6.113-92.398-98v-168.435c0-17.709 14.356-32.065 32.065-32.065h324.769c17.709 0 32.065 14.356 32.065 32.065v240.484c-.001 17.708-14.357 32.064-32.066 32.064z" fill="#eceaec"/><circle cx="247.984" cy="159.806" fill="#c8c5c9" r="88.177"/><path d="m500.053 288.065h-280.662c-3.602 0-6.698-2.426-7.705-6.037-10.476-37.58-40.329-67.432-77.909-77.908-3.61-1.006-6.036-4.103-6.036-7.705v-184.468-3.313c-13.805 3.576-24.048 16.007-24.048 30.931v240.484c0 17.708 14.355 32.065 32.065 32.065h336.677c14.924 0 27.355-10.243 30.931-24.048h-3.313z" fill="#dad8db"/><path d="m103.694 223.935c-48.699 0-88.177 39.478-88.177 88.177v88.177c13.89 10.07 33.439 17.705 56.108 21.462h64.139c22.669-3.758 42.218-11.393 56.108-21.462 0 0 0-70.307 0-88.177-.001-48.698-39.479-88.177-88.178-88.177z" fill="#5d5360"/><path d="m71.629 280.048c-10.768-6.705-22.25-16.286-29.164-31.307-16.591 16.034-26.949 38.476-26.949 63.372v88.177c13.89 10.07 33.439 17.705 56.108 21.462h42.516z" fill="#4b3f4e"/><path d="m175.222 454.142-71.529-29.804-71.529 29.804c-14.935 6.224-24.664 20.817-24.664 36.998v13.36h192.387v-13.36c0-16.181-9.729-30.774-24.665-36.998z" fill="#b3e59f"/><path d="m103.694 472.435c-17.709 0-32.065-14.356-32.065-32.064v-56.113h64.129v56.113c0 17.709-14.356 32.064-32.064 32.064z" fill="#e3aa75"/><path d="m71.629 425.64c9.824 4.296 20.656 6.715 32.065 6.715s22.24-2.419 32.065-6.715v-33.366h-64.13z" fill="#d29b6e"/><path d="m153.443 305.87c-19.919-1.893-56.33-7.751-81.814-25.822l-8.016 8.851-24.049 38.915v16.363c0 35.417 28.712 64.129 64.129 64.129s64.129-28.712 64.129-64.129v-22.365c.001-8.225-6.191-15.164-14.379-15.942z" fill="#f5b97d"/><path d="m247.984 71.629v88.177h88.177c0-48.699-39.478-88.177-88.177-88.177z" fill="#b3e59f"/><path d="m247.984 159.806v-88.177c-24.349 0-46.394 9.869-62.351 25.826z" fill="#ffd064"/><path d="m264.016 223.935c-48.7 0-88.177-39.478-88.177-88.177 0-12.871 2.822-25.061 7.778-36.085-14.728 15.759-23.811 36.862-23.811 60.133 0 48.699 39.478 88.177 88.177 88.177 35.828 0 66.601-21.405 80.399-52.093-16.092 17.22-38.938 28.045-64.366 28.045z" fill="#b6b1b7"/><path d="m63.613 341.98v-53.081l-15.75 17.391c-5.341 5.897-8.298 13.569-8.298 21.524v16.363c0 35.417 28.712 64.129 64.129 64.129 4.141 0 8.181-.428 12.103-1.178-30.195-5.825-52.184-33.614-52.184-65.148z" fill="#e3aa75"/><path d="m256 440.371h-32.065v-40.081h16.032c8.854 0 16.032 7.178 16.032 16.032v24.049z" fill="#f5b97d"/><path d="m223.935 440.371h32.065v64.129h-32.065z" fill="#b3e59f"/><path d="m80.821 365.15c-1.699 3.778-.013 8.217 3.765 9.916 5.698 2.562 12.306 3.916 19.108 3.916 6.803 0 13.41-1.354 19.108-3.916 3.778-1.699 5.463-6.138 3.765-9.916-1.699-3.778-6.139-5.463-9.916-3.764-3.778 1.699-8.258 2.597-12.957 2.597-4.698 0-9.178-.898-12.957-2.597s-8.218-.014-9.916 3.764z"/><path d="m171.312 445.693-28.053-10.52v-7.182c20.976-4.205 39.211-11.621 53.015-21.629 1.946-1.411 3.098-3.668 3.098-6.072v-88.177c0-52.757-42.921-95.677-95.678-95.677-52.756 0-95.677 42.921-95.677 95.677v88.177c0 2.404 1.152 4.661 3.098 6.072 13.804 10.008 32.04 17.425 53.015 21.629v7.182l-28.054 10.52c-21.578 8.093-36.076 29.013-36.076 52.057v6.75c0 4.142 3.358 7.5 7.5 7.5s7.5-3.358 7.5-7.5v-6.75c0-16.827 10.586-32.104 26.342-38.012l24.157-9.059c4.548 16.832 19.944 29.256 38.194 29.256s33.646-12.424 38.194-29.256l24.157 9.059c15.756 5.909 26.343 21.185 26.343 38.012v6.75c0 4.142 3.358 7.5 7.5 7.5s7.5-3.358 7.5-7.5v-6.75c0-23.044-14.497-43.964-36.075-52.057zm-148.296-49.342v-84.239c0-44.486 36.192-80.677 80.677-80.677 44.486 0 80.678 36.192 80.678 80.677v84.239c-10.925 7.152-25.188 12.793-41.113 16.31v-8.812c19.309-12.845 32.064-34.793 32.064-59.672v-22.365c0-12.198-9.102-22.262-21.171-23.409-18.834-1.79-54.037-7.35-78.185-24.473-3.38-2.396-8.06-1.6-10.457 1.78-2.396 3.379-1.599 8.06 1.78 10.456 26.992 19.14 65.118 25.238 85.442 27.17 4.327.411 7.59 4.055 7.59 8.476v22.365c0 31.225-25.404 56.629-56.629 56.629s-56.629-25.404-56.629-56.629v-16.363c0-6.107 2.258-11.963 6.357-16.49l1.987-2.194c2.781-3.07 2.545-7.813-.524-10.594-3.07-2.78-7.813-2.546-10.594.525l-1.987 2.194c-6.603 7.29-10.239 16.722-10.239 26.559v16.363c0 24.879 12.756 46.827 32.064 59.672v8.812c-15.923-3.516-30.186-9.158-41.111-16.31zm80.677 68.585c-13.545 0-24.564-11.02-24.564-24.564v-28.905c7.665 2.807 15.939 4.34 24.565 4.34 8.625 0 16.899-1.533 24.564-4.34v28.905c0 13.544-11.019 24.564-24.565 24.564z"/><path d="m79.645 343.661c4.142 0 7.5-3.358 7.5-7.5v-8.016c0-4.142-3.358-7.5-7.5-7.5s-7.5 3.358-7.5 7.5v8.016c0 4.142 3.358 7.5 7.5 7.5z"/><path d="m127.742 343.661c4.142 0 7.5-3.358 7.5-7.5v-8.016c0-4.142-3.358-7.5-7.5-7.5s-7.5 3.358-7.5 7.5v8.016c0 4.142 3.358 7.5 7.5 7.5z"/><path d="m472.436 0h-336.678c-21.816 0-39.565 17.749-39.565 39.564v152.306c0 4.142 3.358 7.5 7.5 7.5s7.5-3.358 7.5-7.5v-152.306c0-13.545 11.02-24.564 24.565-24.564h336.677c13.545 0 24.565 11.02 24.565 24.564v240.484c0 13.545-11.02 24.564-24.564 24.564h-248.504c-4.142 0-7.5 3.358-7.5 7.5s3.358 7.5 7.5 7.5h248.504c21.816 0 39.564-17.749 39.564-39.564v-240.484c0-21.815-17.749-39.564-39.564-39.564z"/><path d="m239.968 392.79h-8.532v-32.58c0-4.142-3.358-7.5-7.5-7.5s-7.5 3.358-7.5 7.5v144.29c0 4.142 3.358 7.5 7.5 7.5s7.5-3.358 7.5-7.5v-56.629h17.064v56.629c0 4.142 3.358 7.5 7.5 7.5s7.5-3.358 7.5-7.5v-88.177c0-12.976-10.557-23.533-23.532-23.533zm-8.532 15h8.532c4.705 0 8.532 3.828 8.532 8.532v16.548h-17.064z"/><path d="m247.984 64.129c-52.757 0-95.677 42.921-95.677 95.677 0 52.757 42.92 95.677 95.677 95.677s95.677-42.921 95.677-95.677-42.92-95.677-95.677-95.677zm80.316 88.177h-72.816v-72.816c38.509 3.569 69.248 34.307 72.816 72.816zm-131.785-54.575c12.169-10.107 27.346-16.701 43.969-18.241v62.21zm51.469 142.753c-44.485 0-80.677-36.192-80.677-80.677 0-19.548 6.992-37.491 18.602-51.469l56.772 56.772c1.406 1.406 3.314 2.197 5.303 2.197h80.316c-3.797 40.98-38.361 73.177-80.316 73.177z"/><path d="m336.677 247.984c0 4.142 3.358 7.5 7.5 7.5h128.258c4.142 0 7.5-3.358 7.5-7.5s-3.358-7.5-7.5-7.5h-8.532v-88.694c0-4.142-3.358-7.5-7.5-7.5s-7.5 3.358-7.5 7.5v88.694h-17.064v-40.597c0-4.142-3.358-7.5-7.5-7.5s-7.5 3.358-7.5 7.5v40.597h-17.064v-64.645c0-4.142-3.358-7.5-7.5-7.5s-7.5 3.358-7.5 7.5v64.645h-17.065v-24.564c0-4.142-3.358-7.5-7.5-7.5s-7.5 3.358-7.5 7.5v24.564h-8.532c-4.143 0-7.501 3.358-7.501 7.5z"/><path d="m464.419 64.129h-112.226c-4.142 0-7.5 3.358-7.5 7.5s3.358 7.5 7.5 7.5h112.226c4.142 0 7.5-3.358 7.5-7.5s-3.357-7.5-7.5-7.5z"/><path d="m464.419 96.194h-72.145c-4.142 0-7.5 3.358-7.5 7.5s3.358 7.5 7.5 7.5h72.145c4.142 0 7.5-3.358 7.5-7.5s-3.357-7.5-7.5-7.5z"/></svg>