<svg height="598pt" viewBox="-40 0 598 598.381" width="598pt" xmlns="http://www.w3.org/2000/svg"><path d="m518.699219 89.757812c.019531-2.636718-.996094-5.167968-2.832031-7.050781l-79.785157-79.785156c-1.875-1.855469-4.417969-2.8789062-7.050781-2.84375v-.078125h-378.976562c-27.527344.0351562-49.832032 22.335938-49.863282 49.863281v498.652344c.03125 27.523437 22.335938 49.832031 49.863282 49.867187h418.867187c27.527344-.035156 49.832031-22.34375 49.867187-49.867187zm-79.695313-55.710937 45.734375 45.738281h-45.734375zm-388.949218-14.101563h369.003906v69.8125c0 5.507813 4.464844 9.972657 9.972656 9.972657h69.808594v199.460937h-478.703125v-249.328125c0-16.519531 13.394531-29.917969 29.917969-29.917969zm448.785156 498.652344h-478.703125v-199.460937h478.703125zm-29.917969 59.835938h-418.867187c-16.523438 0-29.917969-13.394532-29.917969-29.917969v-9.972656h478.703125v9.972656c0 16.523437-13.394532 29.917969-29.917969 29.917969zm0 0"/><path d="m89.949219 508.625c27.527343-.035156 49.828125-22.34375 49.863281-49.867188v-119.675781c0-5.507812-4.464844-9.972656-9.972656-9.972656-5.507813 0-9.972656 4.464844-9.972656 9.972656v119.675781c0 16.523438-13.398438 29.921876-29.917969 29.921876-16.523438 0-29.921875-13.398438-29.921875-29.921876 0-5.507812-4.464844-9.972656-9.972656-9.972656-5.507813 0-9.972657 4.464844-9.972657 9.972656.035157 27.523438 22.335938 49.832032 49.867188 49.867188zm0 0"/><path d="m159.757812 508.625c5.507813 0 9.972657-4.464844 9.972657-9.972656v-69.8125h59.839843v69.8125c0 5.507812 4.464844 9.972656 9.972657 9.972656 5.507812 0 9.972656-4.464844 9.972656-9.972656v-139.625c0-16.519532-13.394531-29.917969-29.917969-29.917969h-39.894531c-16.519531 0-29.917969 13.398437-29.917969 29.917969v139.625c0 5.507812 4.464844 9.972656 9.972656 9.972656zm9.972657-149.597656c0-5.507813 4.464843-9.972656 9.972656-9.972656h39.894531c5.507813 0 9.972656 4.464843 9.972656 9.972656v49.867187h-59.839843zm0 0"/><path d="m389.136719 508.625c5.507812 0 9.972656-4.464844 9.972656-9.972656v-69.8125h59.839844v69.8125c0 5.507812 4.464843 9.972656 9.972656 9.972656s9.972656-4.464844 9.972656-9.972656v-139.625c0-16.519532-13.394531-29.917969-29.917969-29.917969h-39.890624c-16.523438 0-29.921876 13.398437-29.921876 29.917969v139.625c0 5.507812 4.464844 9.972656 9.972657 9.972656zm9.972656-149.597656c0-5.507813 4.46875-9.972656 9.976563-9.972656h39.890624c5.507813 0 9.972657 4.464843 9.972657 9.972656v49.867187h-59.839844zm0 0"/><path d="m309.652344 501.0625c1.113281 4.441406 5.101562 7.550781 9.675781 7.550781 4.570313 0 8.558594-3.109375 9.675781-7.550781l39.890625-159.570312c.953125-3.484376-.054687-7.222657-2.632812-9.753907-2.585938-2.535156-6.335938-3.472656-9.808594-2.449219-3.472656 1.027344-6.113281 3.847657-6.910156 7.378907l-30.214844 120.863281-30.21875-120.863281c-.796875-3.53125-3.4375-6.351563-6.910156-7.378907-3.46875-1.023437-7.21875-.085937-9.804688 2.449219-2.582031 2.53125-3.589843 6.269531-2.636719 9.753907zm0 0"/></svg>