<svg height="512pt" viewBox="-88 0 512 512" width="512pt" xmlns="http://www.w3.org/2000/svg"><path d="m168 0c-92.636719 0-168 75.363281-168 168 0 29.976562 7.996094 59.402344 23.125 85.105469 13.492188 22.921875 32.320312 42.394531 54.714844 56.664062 1.429687 7.710938 6.722656 38.378907 7.964844 45.230469h-13.824219c-8.285157 0-15 6.714844-15 15s6.714843 15 15 15h15.980469v30h-15.980469c-8.285157 0-15 6.714844-15 15 0 8.28125 6.714843 15 15 15h17.050781c6.230469 37.949219 39.242188 67 78.929688 67 39.703124 0 72.734374-29.050781 78.964843-67h17.074219c8.285156 0 15-6.71875 15-15 0-8.285156-6.714844-15-15-15h-16v-30h16c8.285156 0 15-6.714844 15-15s-6.714844-15-15-15h-13.824219c1.246094-6.851562 6.535157-37.507812 7.964844-45.214844 22.398437-14.269531 41.230469-33.746094 54.726563-56.667968 15.132812-25.703126 23.132812-55.136719 23.132812-85.117188 0-92.636719-75.363281-168-168-168zm-.039062 482c-23.074219 0-42.539063-15.714844-48.277344-37h96.589844c-5.742188 21.285156-25.222657 37-48.3125 37zm-50-67v-30h100.039062v30zm119.15625-127.535156c-3.746094 2.171875-6.367188 5.855468-7.195313 10.109375-1.886719 9.671875-8.699219 49.164062-10.25 57.425781h-103.359375c-1.550781-8.261719-8.367188-47.765625-10.253906-57.441406-.828125-4.246094-3.453125-7.933594-7.195313-10.105469-42.476562-24.640625-68.863281-70.414063-68.863281-119.453125 0-76.09375 61.90625-138 138-138s138 61.90625 138 138c0 49.046875-26.394531 94.824219-68.882812 119.464844zm0 0"/><path d="m205 145.042969h-42.984375l35.824219-45.230469c5.144531-6.492188 4.050781-15.925781-2.445313-21.070312-6.492187-5.144532-15.925781-4.050782-21.070312 2.445312l-55.082031 69.542969c-3.570313 4.511719-4.25 10.664062-1.746094 15.84375 2.507812 5.179687 7.75 8.472656 13.503906 8.472656h42.730469l-39.375 49.066406c-5.183594 6.460938-4.152344 15.902344 2.3125 21.085938 2.769531 2.222656 6.082031 3.304687 9.378906 3.304687 4.390625-.003906 8.742187-1.921875 11.707031-5.613281l58.945313-73.457031c3.613281-4.5 4.320312-10.671875 1.824219-15.875-2.496094-5.203125-7.753907-8.515625-13.523438-8.515625zm0 0"/></svg>