<svg id="svg" version="1.1" xmlns="http://www.w3.org/2000/svg" xmlns:xlink="http://www.w3.org/1999/xlink" width="400" height="400" viewBox="0, 0, 400,400"><g id="svgg"><path id="path0" d="M171.869 93.064 C 171.721 93.212,171.600 94.724,171.600 96.424 C 171.600 100.290,172.490 100.000,160.616 100.000 C 149.404 100.000,150.090 99.742,149.919 104.018 L 149.800 107.000 142.900 107.109 L 136.000 107.219 136.000 110.360 C 136.000 114.186,135.864 114.326,131.982 114.481 L 129.000 114.600 128.881 117.582 C 128.726 121.465,128.587 121.600,124.751 121.600 L 121.600 121.600 121.600 124.751 C 121.600 128.587,121.465 128.726,117.582 128.881 L 114.600 129.000 114.481 131.982 C 114.326 135.864,114.186 136.000,110.360 136.000 L 107.219 136.000 107.109 142.900 L 107.000 149.800 104.018 149.919 C 99.740 150.090,100.001 149.388,99.994 160.749 C 99.987 172.291,100.251 171.531,96.188 171.682 L 93.000 171.800 92.887 181.400 C 92.742 193.808,92.438 192.860,96.512 192.716 L 99.800 192.600 99.916 189.536 C 100.073 185.408,99.446 185.631,111.233 185.507 L 121.400 185.400 121.519 182.418 C 121.673 178.567,121.836 178.400,125.449 178.400 L 128.400 178.400 128.400 167.816 L 128.400 157.232 125.100 157.116 L 121.800 157.000 121.693 146.628 C 121.571 134.758,121.275 135.615,125.500 135.606 L 128.400 135.600 128.400 132.662 C 128.400 128.814,128.821 128.400,132.731 128.400 L 135.600 128.400 135.606 125.500 C 135.614 121.691,135.645 121.658,139.412 121.518 L 142.600 121.400 142.718 118.212 C 142.866 114.235,142.523 114.415,150.000 114.400 C 157.477 114.385,157.134 114.565,157.282 110.588 L 157.400 107.400 163.947 107.290 C 171.752 107.159,171.529 107.048,171.684 111.136 L 171.800 114.200 192.555 114.304 C 216.251 114.422,214.321 114.760,214.484 110.464 L 214.600 107.400 217.896 107.284 C 221.672 107.151,221.519 107.330,221.698 102.800 L 221.800 100.200 225.115 100.084 L 228.431 99.967 228.315 96.484 L 228.200 93.000 200.169 92.897 C 184.752 92.841,172.017 92.916,171.869 93.064 M7.700 100.265 C 6.996 100.549,6.977 120.417,7.680 121.120 C 8.028 121.468,10.941 121.600,18.272 121.600 L 28.385 121.600 28.595 122.500 C 28.711 122.995,28.850 126.100,28.903 129.400 L 29.000 135.400 32.116 135.600 C 35.852 135.840,35.986 135.988,35.994 139.900 L 36.000 142.800 39.400 142.800 L 42.800 142.800 42.800 139.649 C 42.800 135.813,42.935 135.674,46.818 135.519 L 49.800 135.400 50.000 128.600 L 50.200 121.800 60.367 121.693 C 67.050 121.623,70.717 121.434,71.067 121.144 C 71.870 120.478,71.842 101.099,71.037 100.431 C 70.688 100.141,69.358 100.008,67.537 100.082 L 64.600 100.200 64.490 106.771 C 64.361 114.460,64.388 114.400,60.984 114.400 C 56.953 114.400,57.200 114.869,57.200 107.200 C 57.200 99.531,57.447 100.000,53.416 100.000 C 50.012 100.000,50.039 99.940,49.910 107.629 L 49.800 114.200 46.762 114.316 C 42.736 114.469,42.843 114.669,42.710 106.771 L 42.600 100.200 39.400 100.200 L 36.200 100.200 36.090 106.771 C 35.959 114.567,36.044 114.400,32.200 114.400 C 28.356 114.400,28.441 114.567,28.310 106.771 L 28.200 100.200 25.000 100.200 L 21.800 100.200 21.690 106.771 C 21.557 114.669,21.664 114.469,17.638 114.316 L 14.600 114.200 14.490 107.629 C 14.422 103.612,14.209 100.852,13.941 100.529 C 13.510 100.010,8.823 99.812,7.700 100.265 M228.884 103.493 L 229.000 107.000 235.800 107.200 L 242.600 107.400 242.716 110.464 C 242.868 114.466,242.664 114.359,250.429 114.490 L 257.000 114.600 257.116 117.896 C 257.249 121.672,257.070 121.519,261.600 121.698 L 264.200 121.800 264.316 125.100 L 264.432 128.400 267.536 128.400 C 271.437 128.400,271.600 128.564,271.600 132.480 L 271.600 135.600 274.571 135.600 C 278.476 135.600,278.800 135.924,278.800 139.829 L 278.800 142.800 281.920 142.800 C 286.142 142.800,286.000 142.534,286.000 150.464 L 286.000 157.168 289.300 157.284 L 292.600 157.400 292.710 163.971 C 292.842 171.826,292.719 171.600,296.849 171.600 L 300.000 171.600 300.000 200.000 L 300.000 228.400 303.603 228.400 L 307.205 228.400 307.103 200.100 L 307.000 171.800 303.507 171.685 L 300.013 171.569 299.907 160.885 L 299.800 150.200 297.200 150.098 C 292.387 149.908,292.800 150.594,292.800 142.792 L 292.800 136.000 289.829 136.000 C 285.924 136.000,285.600 135.676,285.600 131.771 L 285.600 128.800 282.629 128.800 C 278.727 128.800,278.400 128.474,278.400 124.588 L 278.400 121.632 275.100 121.516 L 271.800 121.400 271.600 118.000 L 271.400 114.600 268.000 114.400 L 264.600 114.200 264.498 111.600 C 264.308 106.787,264.993 107.200,257.200 107.200 C 249.407 107.200,250.092 107.613,249.902 102.800 L 249.800 100.200 239.284 100.093 L 228.769 99.987 228.884 103.493 M343.272 100.514 C 343.033 100.801,342.785 102.378,342.719 104.018 L 342.600 107.000 339.300 107.116 L 336.000 107.232 336.000 114.432 L 336.000 121.632 339.300 121.516 L 342.600 121.400 342.716 118.104 C 342.849 114.328,342.670 114.481,347.200 114.302 L 349.800 114.200 349.902 111.600 C 349.959 110.170,350.097 108.595,350.210 108.100 L 350.415 107.200 360.559 107.200 C 372.249 107.200,371.510 106.933,371.681 111.218 L 371.800 114.200 374.782 114.319 C 378.595 114.472,378.743 114.616,378.884 118.336 L 379.000 121.400 382.309 121.516 L 385.619 121.633 385.509 114.516 L 385.400 107.400 382.418 107.281 C 378.605 107.128,378.457 106.984,378.316 103.264 L 378.200 100.200 360.952 100.096 C 347.154 100.012,343.618 100.096,343.272 100.514 M328.800 125.000 L 328.800 128.400 332.200 128.400 L 335.600 128.400 335.600 125.000 L 335.600 121.600 332.200 121.600 L 328.800 121.600 328.800 125.000 M386.000 125.000 L 386.000 128.400 389.400 128.400 L 392.800 128.400 392.800 125.000 L 392.800 121.600 389.400 121.600 L 386.000 121.600 386.000 125.000 M7.476 129.058 C 6.818 129.716,7.167 171.102,7.833 171.357 C 8.181 171.491,14.445 171.600,21.753 171.600 C 31.554 171.600,35.166 171.726,35.520 172.080 C 35.889 172.449,36.000 187.257,36.000 236.296 L 36.000 300.032 39.300 299.916 L 42.600 299.800 42.800 235.800 L 43.000 171.800 56.855 171.695 C 67.903 171.611,70.801 171.480,71.159 171.050 C 71.480 170.662,71.578 164.634,71.504 149.755 L 71.400 129.000 64.400 129.000 L 57.400 129.000 57.400 132.200 L 57.400 135.400 60.382 135.519 C 62.022 135.585,63.597 135.832,63.882 136.068 C 64.661 136.715,64.635 163.307,63.855 163.954 C 63.460 164.282,56.612 164.378,38.955 164.303 L 14.600 164.200 14.495 150.447 C 14.373 134.589,14.093 135.677,18.336 135.516 L 21.400 135.400 21.400 132.200 L 21.400 129.000 14.576 128.891 C 10.822 128.831,7.627 128.906,7.476 129.058 M214.667 129.067 C 214.520 129.213,214.400 130.631,214.400 132.218 C 214.400 136.350,217.496 135.982,181.762 136.098 L 150.200 136.200 150.200 139.400 L 150.200 142.600 153.182 142.719 C 157.103 142.876,157.258 143.034,157.116 146.762 L 157.000 149.800 154.018 149.919 C 149.861 150.085,150.000 149.835,150.000 157.169 C 150.000 164.501,149.951 164.402,153.580 164.394 C 157.079 164.386,157.143 164.320,157.282 160.588 L 157.400 157.400 160.688 157.284 C 164.475 157.150,164.315 156.969,164.498 161.600 L 164.600 164.200 167.638 164.316 C 171.366 164.458,171.524 164.303,171.681 160.382 L 171.800 157.400 174.838 157.284 C 178.566 157.142,178.724 157.297,178.881 161.218 L 179.000 164.200 182.064 164.316 C 185.784 164.457,185.928 164.605,186.081 168.418 L 186.200 171.400 189.400 171.600 L 192.600 171.800 192.710 178.347 C 192.842 186.193,192.937 186.000,188.951 186.000 L 186.000 186.000 186.000 188.951 C 186.000 192.851,186.179 192.759,178.371 192.890 L 171.800 193.000 171.684 196.296 C 171.551 200.072,171.730 199.919,167.200 200.098 L 164.600 200.200 164.600 221.400 L 164.600 242.600 167.664 242.716 C 171.666 242.868,171.559 242.664,171.690 250.429 L 171.800 257.000 174.864 257.116 C 178.584 257.257,178.728 257.405,178.881 261.218 L 179.000 264.200 182.064 264.316 C 185.784 264.457,185.928 264.605,186.081 268.418 L 186.200 271.400 189.400 271.400 L 192.600 271.400 192.707 261.233 C 192.831 249.446,192.608 250.073,196.736 249.916 L 199.800 249.800 199.910 243.229 C 200.041 235.464,199.934 235.668,203.936 235.516 L 207.000 235.400 207.116 232.336 C 207.268 228.334,207.064 228.441,214.829 228.310 L 221.400 228.200 221.505 214.647 C 221.627 199.013,221.904 200.077,217.664 199.916 L 214.600 199.800 214.481 196.818 C 214.328 193.005,214.184 192.857,210.464 192.716 L 207.400 192.600 207.284 189.300 L 207.168 186.000 204.033 186.000 C 199.732 186.000,199.967 186.673,200.093 174.751 L 200.200 164.600 206.771 164.490 C 214.536 164.359,214.332 164.466,214.484 160.464 L 214.600 157.400 221.147 157.290 C 228.952 157.159,228.729 157.048,228.884 161.136 L 229.000 164.200 239.400 164.400 L 249.800 164.600 249.916 167.664 C 250.057 171.384,250.205 171.528,254.018 171.681 L 257.000 171.800 257.116 175.115 L 257.233 178.431 260.716 178.315 L 264.200 178.200 264.200 171.400 L 264.200 164.600 261.600 164.498 C 256.787 164.308,257.200 164.993,257.200 157.200 C 257.200 149.407,257.613 150.092,252.800 149.902 L 250.200 149.800 250.000 146.400 L 249.800 143.000 246.400 142.800 L 243.000 142.600 242.884 139.300 L 242.768 136.000 239.812 136.000 C 235.926 136.000,235.600 135.673,235.600 131.771 L 235.600 128.800 225.267 128.800 C 219.583 128.800,214.813 128.920,214.667 129.067 M350.273 136.260 C 350.123 136.410,350.000 137.943,350.000 139.667 L 350.000 142.800 346.880 142.800 C 343.038 142.800,342.800 143.012,342.800 146.431 C 342.800 149.827,343.084 150.070,346.863 149.918 L 349.800 149.800 349.916 146.300 L 350.031 142.800 360.800 142.800 L 371.569 142.800 371.684 146.300 L 371.800 149.800 375.000 149.800 L 378.200 149.800 378.200 146.400 L 378.200 143.000 374.916 142.884 L 371.632 142.768 371.516 139.484 L 371.400 136.200 360.973 136.094 C 355.238 136.035,350.423 136.110,350.273 136.260 M357.482 164.652 C 356.997 165.137,357.165 170.605,357.680 171.120 C 358.377 171.817,363.377 171.751,363.969 171.037 C 364.259 170.688,364.392 169.358,364.318 167.537 L 364.200 164.600 360.982 164.485 C 359.211 164.422,357.636 164.497,357.482 164.652 M93.257 200.532 C 92.916 200.943,92.818 204.761,92.895 214.647 L 93.000 228.200 96.064 228.316 C 100.192 228.473,99.969 227.846,100.093 239.633 L 100.200 249.800 102.800 249.902 C 107.613 250.092,107.200 249.407,107.200 257.200 C 107.200 264.993,106.787 264.308,111.600 264.498 L 114.200 264.600 114.400 268.000 L 114.600 271.400 118.000 271.600 L 121.400 271.800 121.516 275.100 L 121.632 278.400 124.588 278.400 C 128.474 278.400,128.800 278.727,128.800 282.629 L 128.800 285.600 131.771 285.600 C 135.676 285.600,136.000 285.924,136.000 289.829 L 136.000 292.800 142.792 292.800 C 150.594 292.800,149.908 292.387,150.098 297.200 L 150.200 299.800 160.885 299.907 L 171.569 300.013 171.685 303.507 L 171.800 307.000 200.100 307.103 L 228.400 307.205 228.400 303.603 L 228.400 300.000 200.000 300.000 L 171.600 300.000 171.600 296.849 C 171.600 292.719,171.826 292.842,163.971 292.710 L 157.400 292.600 157.284 289.300 L 157.168 286.000 150.464 286.000 C 142.534 286.000,142.800 286.142,142.800 281.920 L 142.800 278.800 139.829 278.800 C 135.924 278.800,135.600 278.476,135.600 274.571 L 135.600 271.600 132.480 271.600 C 128.564 271.600,128.400 271.437,128.400 267.536 L 128.400 264.432 125.100 264.316 L 121.800 264.200 121.698 261.600 C 121.519 257.070,121.672 257.249,117.896 257.116 L 114.600 257.000 114.493 246.849 C 114.368 235.020,114.146 235.675,118.336 235.516 L 121.400 235.400 121.400 225.000 L 121.400 214.600 114.400 214.376 C 106.133 214.111,107.256 214.678,107.116 210.700 L 107.000 207.400 103.704 207.284 C 99.928 207.151,100.081 207.330,99.902 202.800 L 99.800 200.200 96.762 200.084 C 94.526 199.999,93.601 200.117,93.257 200.532 M357.698 200.331 C 357.300 200.584,357.218 210.828,357.298 250.225 L 357.400 299.800 360.800 299.800 L 364.200 299.800 364.302 250.443 C 364.376 214.300,364.283 200.940,363.953 200.543 C 363.455 199.944,358.569 199.778,357.698 200.331 M257.383 214.900 C 257.278 215.175,257.238 223.140,257.296 232.600 L 257.400 249.800 260.800 249.800 L 264.200 249.800 264.302 247.200 C 264.481 242.670,264.328 242.849,268.104 242.716 L 271.400 242.600 271.510 236.029 C 271.641 228.221,271.549 228.400,275.449 228.400 L 278.400 228.400 278.400 221.400 L 278.400 214.400 267.987 214.400 C 260.026 214.400,257.530 214.518,257.383 214.900 M292.991 229.300 C 292.890 229.575,292.761 232.680,292.704 236.200 L 292.600 242.600 289.400 242.800 L 286.200 243.000 286.090 249.571 C 285.959 257.336,286.066 257.132,282.064 257.284 L 279.000 257.400 278.881 260.382 C 278.728 264.195,278.584 264.343,274.864 264.484 L 271.800 264.600 271.684 267.664 C 271.543 271.384,271.395 271.528,267.582 271.681 L 264.600 271.800 264.484 274.864 C 264.343 278.584,264.195 278.728,260.382 278.881 L 257.400 279.000 257.284 282.064 C 257.132 286.066,257.336 285.959,249.571 286.090 L 243.000 286.200 242.800 289.400 L 242.600 292.600 235.800 292.800 L 229.000 293.000 228.884 296.507 L 228.769 300.013 239.284 299.907 L 249.800 299.800 249.916 296.736 C 250.068 292.734,249.864 292.841,257.629 292.710 L 264.200 292.600 264.319 289.618 C 264.472 285.805,264.616 285.657,268.336 285.516 L 271.400 285.400 271.519 282.418 C 271.673 278.567,271.836 278.400,275.449 278.400 L 278.400 278.400 278.400 275.449 C 278.400 271.836,278.567 271.673,282.418 271.519 L 285.400 271.400 285.519 268.418 C 285.672 264.605,285.816 264.457,289.536 264.316 L 292.600 264.200 292.710 257.629 C 292.841 249.864,292.734 250.068,296.736 249.916 L 299.800 249.800 299.907 239.300 L 300.013 228.800 296.594 228.800 C 294.223 228.800,293.119 228.953,292.991 229.300 " stroke="none" fill="#cccccc" fill-rule="evenodd"></path><path id="path1" d="M170.400 88.400 L 170.400 92.000 159.800 92.000 L 149.200 92.000 149.200 95.600 L 149.200 99.200 142.000 99.200 L 134.800 99.200 134.800 102.800 L 134.800 106.400 131.200 106.400 L 127.600 106.400 127.600 109.800 L 127.600 113.200 124.900 113.205 C 120.328 113.215,120.400 113.154,120.400 117.047 L 120.400 120.400 117.047 120.400 C 113.154 120.400,113.215 120.328,113.205 124.900 L 113.200 127.600 109.800 127.600 L 106.400 127.600 106.400 131.200 L 106.400 134.800 102.800 134.800 L 99.200 134.800 99.200 142.000 L 99.200 149.200 95.600 149.200 L 92.000 149.200 92.000 159.800 L 92.000 170.400 88.400 170.400 L 84.800 170.400 84.800 200.000 L 84.800 229.600 88.400 229.600 L 92.000 229.600 92.000 240.200 L 92.000 250.800 95.600 250.800 L 99.200 250.800 99.200 258.000 L 99.200 265.200 102.800 265.200 L 106.400 265.200 106.400 268.800 L 106.400 272.400 109.800 272.400 L 113.200 272.400 113.205 275.100 C 113.215 279.669,113.156 279.600,117.031 279.600 L 120.369 279.600 120.484 283.100 L 120.600 286.600 124.100 286.716 L 127.600 286.831 127.600 290.216 L 127.600 293.600 131.200 293.600 L 134.800 293.600 134.800 297.200 L 134.800 300.800 142.000 300.800 L 149.200 300.800 149.200 304.400 L 149.200 308.000 159.800 308.000 L 170.400 308.000 170.400 311.600 L 170.400 315.200 200.000 315.200 L 229.600 315.200 229.600 311.600 L 229.600 308.000 240.200 308.000 L 250.800 308.000 250.800 304.400 L 250.800 300.800 258.000 300.800 L 265.200 300.800 265.200 297.200 L 265.200 293.600 268.800 293.600 L 272.400 293.600 272.400 290.216 L 272.400 286.831 275.900 286.716 L 279.400 286.600 279.515 283.115 L 279.631 279.631 283.115 279.515 L 286.600 279.400 286.716 275.900 L 286.831 272.400 290.216 272.400 L 293.600 272.400 293.600 268.800 L 293.600 265.200 297.200 265.200 L 300.800 265.200 300.800 258.000 L 300.800 250.800 304.400 250.800 L 308.000 250.800 308.000 240.200 L 308.000 229.600 311.600 229.600 L 315.200 229.600 315.200 200.000 L 315.200 170.400 311.600 170.400 L 308.000 170.400 308.000 159.800 L 308.000 149.200 304.400 149.200 L 300.800 149.200 300.800 142.000 L 300.800 134.800 297.200 134.800 L 293.600 134.800 293.600 131.200 L 293.600 127.600 290.216 127.600 L 286.831 127.600 286.716 124.100 L 286.600 120.600 283.100 120.484 L 279.600 120.369 279.600 117.031 C 279.600 113.156,279.669 113.215,275.100 113.205 L 272.400 113.200 272.400 109.800 L 272.400 106.400 268.800 106.400 L 265.200 106.400 265.200 102.800 L 265.200 99.200 258.000 99.200 L 250.800 99.200 250.800 95.600 L 250.800 92.000 240.200 92.000 L 229.600 92.000 229.600 88.400 L 229.600 84.800 200.000 84.800 L 170.400 84.800 170.400 88.400 M6.400 95.600 L 6.400 99.200 3.200 99.200 L 0.000 99.200 0.000 135.800 L 0.000 172.400 3.200 172.400 L 6.400 172.400 6.400 176.000 L 6.400 179.600 17.000 179.600 L 27.600 179.600 27.600 240.200 L 27.600 300.800 31.200 300.800 L 34.800 300.800 34.800 304.400 L 34.800 308.000 39.200 308.000 L 43.600 308.000 43.600 304.400 L 43.600 300.800 47.200 300.800 L 50.800 300.800 50.800 240.200 L 50.800 179.600 61.600 179.600 L 72.400 179.600 72.400 176.000 L 72.400 172.400 76.000 172.400 L 79.600 172.400 79.600 135.800 L 79.600 99.200 76.000 99.200 L 72.400 99.200 72.400 95.600 L 72.400 92.000 68.043 92.000 C 62.983 92.000,63.200 91.810,63.200 96.233 L 63.200 99.200 60.600 99.200 L 58.000 99.200 58.000 95.600 L 58.000 92.000 53.600 92.000 L 49.200 92.000 49.200 95.600 L 49.200 99.200 46.400 99.200 L 43.600 99.200 43.600 95.600 L 43.600 92.000 39.200 92.000 L 34.800 92.000 34.800 95.600 L 34.800 99.200 32.200 99.200 L 29.600 99.200 29.600 95.600 L 29.600 92.000 25.000 92.000 L 20.400 92.000 20.400 95.600 L 20.400 99.200 17.800 99.200 L 15.200 99.200 15.200 95.600 L 15.200 92.000 10.800 92.000 L 6.400 92.000 6.400 95.600 M342.000 95.600 L 342.000 99.200 338.400 99.200 L 334.800 99.200 334.800 102.800 L 334.800 106.400 331.200 106.400 L 327.600 106.400 327.600 113.384 L 327.600 120.369 324.100 120.484 L 320.600 120.600 320.494 132.100 L 320.388 143.600 324.994 143.600 L 329.600 143.600 329.600 140.216 L 329.600 136.831 333.100 136.716 L 336.600 136.600 336.716 133.100 L 336.831 129.600 340.216 129.600 L 343.600 129.600 343.600 126.000 L 343.600 122.400 347.200 122.400 L 350.800 122.400 350.800 118.800 L 350.800 115.200 360.600 115.200 L 370.400 115.200 370.400 118.800 L 370.400 122.400 374.000 122.400 L 377.600 122.400 377.600 126.000 L 377.600 129.600 381.184 129.600 L 384.769 129.600 384.884 133.100 L 385.000 136.600 388.500 136.716 L 392.000 136.831 392.000 140.216 L 392.000 143.600 396.000 143.600 L 400.000 143.600 400.000 132.000 L 400.000 120.400 396.800 120.400 L 393.600 120.400 393.600 113.400 L 393.600 106.400 390.200 106.400 L 386.800 106.400 386.800 102.800 L 386.800 99.200 383.200 99.200 L 379.600 99.200 379.600 95.600 L 379.600 92.000 360.800 92.000 L 342.000 92.000 342.000 95.600 M228.315 96.484 L 228.431 99.967 225.115 100.084 L 221.800 100.200 221.698 102.800 C 221.519 107.330,221.672 107.151,217.896 107.284 L 214.600 107.400 214.484 110.464 C 214.321 114.760,216.251 114.422,192.555 114.304 L 171.800 114.200 171.684 111.136 C 171.529 107.048,171.752 107.159,163.947 107.290 L 157.400 107.400 157.282 110.588 C 157.134 114.565,157.477 114.385,150.000 114.400 C 142.523 114.415,142.866 114.235,142.718 118.212 L 142.600 121.400 139.412 121.518 C 135.645 121.658,135.614 121.691,135.606 125.500 L 135.600 128.400 132.731 128.400 C 128.821 128.400,128.400 128.814,128.400 132.662 L 128.400 135.600 125.500 135.606 C 121.275 135.615,121.571 134.758,121.693 146.628 L 121.800 157.000 125.100 157.116 L 128.400 157.232 128.400 167.816 L 128.400 178.400 125.449 178.400 C 121.836 178.400,121.673 178.567,121.519 182.418 L 121.400 185.400 111.233 185.507 C 99.446 185.631,100.073 185.408,99.916 189.536 L 99.800 192.600 96.512 192.716 C 92.438 192.860,92.742 193.808,92.887 181.400 L 93.000 171.800 96.188 171.682 C 100.251 171.531,99.987 172.291,99.994 160.749 C 100.001 149.388,99.740 150.090,104.018 149.919 L 107.000 149.800 107.109 142.900 L 107.219 136.000 110.360 136.000 C 114.186 136.000,114.326 135.864,114.481 131.982 L 114.600 129.000 117.582 128.881 C 121.465 128.726,121.600 128.587,121.600 124.751 L 121.600 121.600 124.751 121.600 C 128.587 121.600,128.726 121.465,128.881 117.582 L 129.000 114.600 131.982 114.481 C 135.864 114.326,136.000 114.186,136.000 110.360 L 136.000 107.219 142.900 107.109 L 149.800 107.000 149.919 104.018 C 150.090 99.742,149.404 100.000,160.616 100.000 C 172.490 100.000,171.600 100.290,171.600 96.424 C 171.600 94.724,171.721 93.212,171.869 93.064 C 172.017 92.916,184.752 92.841,200.169 92.897 L 228.200 93.000 228.315 96.484 M13.941 100.529 C 14.209 100.852,14.422 103.612,14.490 107.629 L 14.600 114.200 17.638 114.316 C 21.664 114.469,21.557 114.669,21.690 106.771 L 21.800 100.200 25.000 100.200 L 28.200 100.200 28.310 106.771 C 28.441 114.567,28.356 114.400,32.200 114.400 C 36.044 114.400,35.959 114.567,36.090 106.771 L 36.200 100.200 39.400 100.200 L 42.600 100.200 42.710 106.771 C 42.843 114.669,42.736 114.469,46.762 114.316 L 49.800 114.200 49.910 107.629 C 50.039 99.940,50.012 100.000,53.416 100.000 C 57.447 100.000,57.200 99.531,57.200 107.200 C 57.200 114.869,56.953 114.400,60.984 114.400 C 64.388 114.400,64.361 114.460,64.490 106.771 L 64.600 100.200 67.537 100.082 C 69.358 100.008,70.688 100.141,71.037 100.431 C 71.842 101.099,71.870 120.478,71.067 121.144 C 70.717 121.434,67.050 121.623,60.367 121.693 L 50.200 121.800 50.000 128.600 L 49.800 135.400 46.818 135.519 C 42.935 135.674,42.800 135.813,42.800 139.649 L 42.800 142.800 39.400 142.800 L 36.000 142.800 35.994 139.900 C 35.986 135.988,35.852 135.840,32.116 135.600 L 29.000 135.400 28.903 129.400 C 28.850 126.100,28.711 122.995,28.595 122.500 L 28.385 121.600 18.272 121.600 C 10.941 121.600,8.028 121.468,7.680 121.120 C 6.977 120.417,6.996 100.549,7.700 100.265 C 8.823 99.812,13.510 100.010,13.941 100.529 M249.902 102.800 C 250.092 107.613,249.407 107.200,257.200 107.200 C 264.993 107.200,264.308 106.787,264.498 111.600 L 264.600 114.200 268.000 114.400 L 271.400 114.600 271.600 118.000 L 271.800 121.400 275.100 121.516 L 278.400 121.632 278.400 124.588 C 278.400 128.474,278.727 128.800,282.629 128.800 L 285.600 128.800 285.600 131.771 C 285.600 135.676,285.924 136.000,289.829 136.000 L 292.800 136.000 292.800 142.792 C 292.800 150.594,292.387 149.908,297.200 150.098 L 299.800 150.200 299.907 160.885 L 300.013 171.569 303.507 171.685 L 307.000 171.800 307.103 200.100 L 307.205 228.400 303.603 228.400 L 300.000 228.400 300.000 200.000 L 300.000 171.600 296.849 171.600 C 292.719 171.600,292.842 171.826,292.710 163.971 L 292.600 157.400 289.300 157.284 L 286.000 157.168 286.000 150.464 C 286.000 142.534,286.142 142.800,281.920 142.800 L 278.800 142.800 278.800 139.829 C 278.800 135.924,278.476 135.600,274.571 135.600 L 271.600 135.600 271.600 132.480 C 271.600 128.564,271.437 128.400,267.536 128.400 L 264.432 128.400 264.316 125.100 L 264.200 121.800 261.600 121.698 C 257.070 121.519,257.249 121.672,257.116 117.896 L 257.000 114.600 250.429 114.490 C 242.664 114.359,242.868 114.466,242.716 110.464 L 242.600 107.400 235.800 107.200 L 229.000 107.000 228.884 103.493 L 228.769 99.987 239.284 100.093 L 249.800 100.200 249.902 102.800 M378.316 103.264 C 378.457 106.984,378.605 107.128,382.418 107.281 L 385.400 107.400 385.509 114.516 L 385.619 121.633 382.309 121.516 L 379.000 121.400 378.884 118.336 C 378.743 114.616,378.595 114.472,374.782 114.319 L 371.800 114.200 371.681 111.218 C 371.510 106.933,372.249 107.200,360.559 107.200 L 350.415 107.200 350.210 108.100 C 350.097 108.595,349.959 110.170,349.902 111.600 L 349.800 114.200 347.200 114.302 C 342.670 114.481,342.849 114.328,342.716 118.104 L 342.600 121.400 339.300 121.516 L 336.000 121.632 336.000 114.432 L 336.000 107.232 339.300 107.116 L 342.600 107.000 342.719 104.018 C 342.895 99.620,341.238 99.977,360.952 100.096 L 378.200 100.200 378.316 103.264 M227.600 111.600 L 227.600 115.200 234.800 115.200 L 242.000 115.200 242.000 118.800 L 242.000 122.400 249.200 122.400 L 256.400 122.400 256.400 126.000 L 256.400 129.600 259.800 129.600 L 263.200 129.600 263.205 132.300 C 263.215 136.872,263.154 136.800,267.047 136.800 L 270.400 136.800 270.400 140.200 L 270.400 143.600 274.000 143.600 L 277.600 143.600 277.600 150.800 L 277.600 158.000 281.200 158.000 L 284.800 158.000 284.800 165.200 L 284.800 172.400 288.400 172.400 L 292.000 172.400 292.000 200.000 L 292.000 227.600 289.400 227.600 L 286.800 227.600 286.800 220.647 C 286.800 212.623,287.158 213.215,282.300 213.205 L 279.600 213.200 279.600 209.800 L 279.600 206.400 268.000 206.400 L 256.400 206.400 256.400 209.800 L 256.400 213.200 253.433 213.200 C 251.801 213.200,250.181 213.309,249.833 213.443 C 249.268 213.659,249.200 215.690,249.200 232.243 L 249.200 250.800 252.800 250.800 L 256.400 250.800 256.400 254.400 L 256.400 258.000 260.800 258.000 L 265.200 258.000 265.200 254.400 L 265.200 250.800 268.800 250.800 L 272.400 250.800 272.400 247.200 L 272.400 243.600 275.000 243.600 L 277.600 243.600 277.600 250.000 L 277.600 256.400 274.000 256.400 L 270.400 256.400 270.400 259.800 L 270.400 263.200 267.429 263.200 C 263.524 263.200,263.200 263.524,263.200 267.429 L 263.200 270.400 259.800 270.400 L 256.400 270.400 256.400 274.000 L 256.400 277.600 249.200 277.600 L 242.000 277.600 242.000 281.200 L 242.000 284.800 234.800 284.800 L 227.600 284.800 227.600 288.400 L 227.600 292.000 200.000 292.000 L 172.400 292.000 172.400 288.400 L 172.400 284.800 165.200 284.800 L 158.000 284.800 158.000 281.200 L 158.000 277.600 150.800 277.600 L 143.600 277.600 143.600 274.000 L 143.600 270.400 140.200 270.400 L 136.800 270.400 136.800 267.047 C 136.800 263.154,136.872 263.215,132.300 263.205 L 129.600 263.200 129.600 259.800 L 129.600 256.400 126.000 256.400 L 122.400 256.400 122.400 246.616 L 122.400 236.831 125.900 236.716 L 129.400 236.600 129.506 225.148 L 129.612 213.696 128.706 213.454 C 128.208 213.320,126.585 213.208,125.100 213.205 L 122.400 213.200 122.400 209.800 L 122.400 206.400 115.200 206.400 L 108.000 206.400 108.000 202.800 L 108.000 199.200 104.400 199.200 L 100.800 199.200 100.800 196.400 L 100.800 193.600 111.600 193.600 L 122.400 193.600 122.400 190.216 L 122.400 186.831 125.900 186.716 L 129.400 186.600 129.515 183.115 L 129.631 179.631 133.115 179.515 L 136.600 179.400 136.706 167.900 L 136.812 156.400 133.206 156.400 L 129.600 156.400 129.600 146.616 L 129.600 136.831 133.100 136.716 L 136.600 136.600 136.716 133.100 L 136.831 129.600 140.216 129.600 L 143.600 129.600 143.600 126.000 L 143.600 122.400 150.800 122.400 L 158.000 122.400 158.000 118.800 L 158.000 115.200 164.200 115.200 L 170.400 115.200 170.400 118.800 L 170.400 122.400 191.800 122.400 L 213.200 122.400 213.200 125.000 L 213.200 127.600 181.200 127.600 L 149.200 127.600 149.200 131.200 L 149.200 134.800 145.600 134.800 L 142.000 134.800 142.000 139.200 L 142.000 143.600 145.600 143.600 L 149.200 143.600 149.200 146.400 L 149.200 149.200 145.600 149.200 L 142.000 149.200 142.000 160.800 L 142.000 172.400 150.000 172.400 L 158.000 172.400 158.000 168.800 L 158.000 165.200 160.600 165.200 L 163.200 165.200 163.200 168.167 C 163.200 172.590,162.983 172.400,168.043 172.400 L 172.400 172.400 172.400 168.800 L 172.400 165.200 175.000 165.200 L 177.600 165.200 177.600 168.800 L 177.600 172.400 181.200 172.400 L 184.800 172.400 184.800 178.600 L 184.800 184.800 177.600 184.800 L 170.400 184.800 170.400 188.400 L 170.400 192.000 167.043 192.000 C 163.116 192.000,163.200 191.907,163.200 196.233 L 163.200 199.200 159.800 199.200 L 156.400 199.200 156.400 221.400 L 156.400 243.600 159.800 243.600 L 163.200 243.600 163.200 250.167 C 163.200 258.548,162.931 258.000,167.043 258.000 L 170.400 258.000 170.400 261.600 L 170.400 265.200 174.000 265.200 L 177.600 265.200 177.600 268.800 L 177.600 272.400 181.200 272.400 L 184.800 272.400 184.800 276.000 L 184.800 279.600 189.200 279.600 L 193.600 279.600 193.600 276.000 L 193.600 272.400 197.200 272.400 L 200.800 272.400 200.800 261.600 L 200.800 250.800 204.400 250.800 L 208.000 250.800 208.000 243.800 L 208.000 236.800 215.200 236.800 L 222.400 236.800 222.400 233.216 L 222.400 229.631 225.900 229.516 L 229.400 229.400 229.505 214.300 L 229.610 199.200 226.005 199.200 L 222.400 199.200 222.400 195.600 L 222.400 192.000 218.800 192.000 L 215.200 192.000 215.200 188.400 L 215.200 184.800 211.600 184.800 L 208.000 184.800 208.000 178.600 L 208.000 172.400 211.600 172.400 L 215.200 172.400 215.200 168.800 L 215.200 165.200 221.400 165.200 L 227.600 165.200 227.600 167.784 L 227.600 170.369 224.100 170.484 L 220.600 170.600 220.600 175.000 L 220.600 179.400 225.000 179.400 L 229.400 179.400 229.516 175.900 L 229.631 172.400 239.416 172.400 L 249.200 172.400 249.200 176.000 L 249.200 179.600 252.800 179.600 L 256.400 179.600 256.400 183.200 L 256.400 186.800 259.800 186.800 L 263.200 186.800 263.200 189.567 C 263.200 193.763,263.005 193.600,268.043 193.600 L 272.400 193.600 272.400 178.643 C 272.400 161.540,272.855 163.200,268.167 163.200 L 265.200 163.200 265.200 156.200 L 265.200 149.200 261.600 149.200 L 258.000 149.200 258.000 145.600 L 258.000 142.000 254.400 142.000 L 250.800 142.000 250.800 138.400 L 250.800 134.800 247.200 134.800 L 243.600 134.800 243.600 131.200 L 243.600 127.600 240.216 127.600 L 236.831 127.600 236.716 124.100 L 236.600 120.600 225.900 120.493 L 215.200 120.387 215.200 117.793 L 215.200 115.200 218.800 115.200 L 222.400 115.200 222.400 111.600 L 222.400 108.000 225.000 108.000 L 227.600 108.000 227.600 111.600 M335.600 125.000 L 335.600 128.400 332.200 128.400 L 328.800 128.400 328.800 125.000 L 328.800 121.600 332.200 121.600 L 335.600 121.600 335.600 125.000 M392.800 125.000 L 392.800 128.400 389.400 128.400 L 386.000 128.400 386.000 125.000 L 386.000 121.600 389.400 121.600 L 392.800 121.600 392.800 125.000 M349.200 131.200 L 349.200 134.800 345.600 134.800 L 342.000 134.800 342.000 138.400 L 342.000 142.000 338.400 142.000 L 334.800 142.000 334.800 145.600 L 334.800 149.200 331.200 149.200 L 327.600 149.200 327.600 157.200 L 327.600 165.200 332.200 165.200 L 336.800 165.200 336.800 161.600 L 336.800 158.000 343.800 158.000 L 350.800 158.000 350.800 154.400 L 350.800 150.800 360.600 150.800 L 370.400 150.800 370.400 154.400 L 370.400 158.000 377.600 158.000 L 384.800 158.000 384.800 161.600 L 384.800 165.200 389.200 165.200 L 393.600 165.200 393.600 157.200 L 393.600 149.200 390.200 149.200 L 386.800 149.200 386.800 145.600 L 386.800 142.000 383.200 142.000 L 379.600 142.000 379.600 138.400 L 379.600 134.800 376.000 134.800 L 372.400 134.800 372.400 131.200 L 372.400 127.600 360.800 127.600 L 349.200 127.600 349.200 131.200 M21.400 132.200 L 21.400 135.400 18.336 135.516 C 14.093 135.677,14.373 134.589,14.495 150.447 L 14.600 164.200 38.955 164.303 C 56.612 164.378,63.460 164.282,63.855 163.954 C 64.635 163.307,64.661 136.715,63.882 136.068 C 63.597 135.832,62.022 135.585,60.382 135.519 L 57.400 135.400 57.400 132.200 L 57.400 129.000 64.400 129.000 L 71.400 129.000 71.504 149.755 C 71.578 164.634,71.480 170.662,71.159 171.050 C 70.801 171.480,67.903 171.611,56.855 171.695 L 43.000 171.800 42.800 235.800 L 42.600 299.800 39.300 299.916 L 36.000 300.032 36.000 236.296 C 36.000 187.257,35.889 172.449,35.520 172.080 C 35.166 171.726,31.554 171.600,21.753 171.600 C 14.445 171.600,8.181 171.491,7.833 171.357 C 7.167 171.102,6.818 129.716,7.476 129.058 C 7.627 128.906,10.822 128.831,14.576 128.891 L 21.400 129.000 21.400 132.200 M235.600 131.771 C 235.600 135.673,235.926 136.000,239.812 136.000 L 242.768 136.000 242.884 139.300 L 243.000 142.600 246.400 142.800 L 249.800 143.000 250.000 146.400 L 250.200 149.800 252.800 149.902 C 257.613 150.092,257.200 149.407,257.200 157.200 C 257.200 164.993,256.787 164.308,261.600 164.498 L 264.200 164.600 264.200 171.400 L 264.200 178.200 260.716 178.315 L 257.233 178.431 257.116 175.115 L 257.000 171.800 254.018 171.681 C 250.205 171.528,250.057 171.384,249.916 167.664 L 249.800 164.600 239.400 164.400 L 229.000 164.200 228.884 161.136 C 228.729 157.048,228.952 157.159,221.147 157.290 L 214.600 157.400 214.484 160.464 C 214.332 164.466,214.536 164.359,206.771 164.490 L 200.200 164.600 200.093 174.751 C 199.967 186.673,199.732 186.000,204.033 186.000 L 207.168 186.000 207.284 189.300 L 207.400 192.600 210.464 192.716 C 214.184 192.857,214.328 193.005,214.481 196.818 L 214.600 199.800 217.664 199.916 C 221.904 200.077,221.627 199.013,221.505 214.647 L 221.400 228.200 214.829 228.310 C 207.064 228.441,207.268 228.334,207.116 232.336 L 207.000 235.400 203.936 235.516 C 199.934 235.668,200.041 235.464,199.910 243.229 L 199.800 249.800 196.736 249.916 C 192.608 250.073,192.831 249.446,192.707 261.233 L 192.600 271.400 189.400 271.400 L 186.200 271.400 186.081 268.418 C 185.928 264.605,185.784 264.457,182.064 264.316 L 179.000 264.200 178.881 261.218 C 178.728 257.405,178.584 257.257,174.864 257.116 L 171.800 257.000 171.690 250.429 C 171.559 242.664,171.666 242.868,167.664 242.716 L 164.600 242.600 164.600 221.400 L 164.600 200.200 167.200 200.098 C 171.730 199.919,171.551 200.072,171.684 196.296 L 171.800 193.000 178.371 192.890 C 186.179 192.759,186.000 192.851,186.000 188.951 L 186.000 186.000 188.951 186.000 C 192.937 186.000,192.842 186.193,192.710 178.347 L 192.600 171.800 189.400 171.600 L 186.200 171.400 186.081 168.418 C 185.928 164.605,185.784 164.457,182.064 164.316 L 179.000 164.200 178.881 161.218 C 178.724 157.297,178.566 157.142,174.838 157.284 L 171.800 157.400 171.681 160.382 C 171.524 164.303,171.366 164.458,167.638 164.316 L 164.600 164.200 164.498 161.600 C 164.315 156.969,164.475 157.150,160.688 157.284 L 157.400 157.400 157.282 160.588 C 157.143 164.320,157.079 164.386,153.580 164.394 C 149.951 164.402,150.000 164.501,150.000 157.169 C 150.000 149.835,149.861 150.085,154.018 149.919 L 157.000 149.800 157.116 146.762 C 157.258 143.034,157.103 142.876,153.182 142.719 L 150.200 142.600 150.200 139.400 L 150.200 136.200 181.762 136.098 C 217.496 135.982,214.400 136.350,214.400 132.218 C 214.400 128.493,213.424 128.800,225.267 128.800 L 235.600 128.800 235.600 131.771 M371.516 139.484 L 371.632 142.768 374.916 142.884 L 378.200 143.000 378.200 146.400 L 378.200 149.800 375.000 149.800 L 371.800 149.800 371.684 146.300 L 371.569 142.800 360.800 142.800 L 350.031 142.800 349.916 146.300 L 349.800 149.800 346.863 149.918 C 343.084 150.070,342.800 149.827,342.800 146.431 C 342.800 143.012,343.038 142.800,346.880 142.800 L 350.000 142.800 350.000 139.667 C 350.000 135.642,348.988 135.971,360.973 136.094 L 371.400 136.200 371.516 139.484 M34.800 147.200 L 34.800 150.800 39.200 150.800 L 43.600 150.800 43.600 147.200 L 43.600 143.600 50.000 143.600 L 56.400 143.600 56.400 150.000 L 56.400 156.400 39.400 156.400 L 22.400 156.400 22.400 150.000 L 22.400 143.600 28.600 143.600 L 34.800 143.600 34.800 147.200 M356.400 159.800 L 356.400 163.200 353.433 163.200 C 348.780 163.200,349.200 162.006,349.200 175.243 L 349.200 186.800 353.600 186.800 L 358.000 186.800 358.000 183.200 L 358.000 179.600 360.600 179.600 L 363.200 179.600 363.205 182.300 C 363.215 186.992,363.008 186.800,368.047 186.800 L 372.400 186.800 372.400 175.243 C 372.400 162.006,372.820 163.200,368.167 163.200 L 365.200 163.200 365.200 159.800 L 365.200 156.400 360.800 156.400 L 356.400 156.400 356.400 159.800 M364.318 167.537 C 364.470 171.316,364.227 171.600,360.831 171.600 C 357.453 171.600,357.200 171.334,357.200 167.787 C 357.200 164.251,357.091 164.346,360.982 164.485 L 364.200 164.600 364.318 167.537 M356.400 195.600 L 356.400 199.200 352.800 199.200 L 349.200 199.200 349.200 250.000 L 349.200 300.800 352.800 300.800 L 356.400 300.800 356.400 304.400 L 356.400 308.000 360.800 308.000 L 365.200 308.000 365.200 304.400 L 365.200 300.800 368.800 300.800 L 372.400 300.800 372.400 250.000 L 372.400 199.200 368.800 199.200 L 365.200 199.200 365.200 195.600 L 365.200 192.000 360.800 192.000 L 356.400 192.000 356.400 195.600 M99.902 202.800 C 100.081 207.330,99.928 207.151,103.704 207.284 L 107.000 207.400 107.116 210.700 C 107.256 214.678,106.133 214.111,114.400 214.376 L 121.400 214.600 121.400 225.000 L 121.400 235.400 118.336 235.516 C 114.146 235.675,114.368 235.020,114.493 246.849 L 114.600 257.000 117.896 257.116 C 121.672 257.249,121.519 257.070,121.698 261.600 L 121.800 264.200 125.100 264.316 L 128.400 264.432 128.400 267.536 C 128.400 271.437,128.564 271.600,132.480 271.600 L 135.600 271.600 135.600 274.571 C 135.600 278.476,135.924 278.800,139.829 278.800 L 142.800 278.800 142.800 281.920 C 142.800 286.142,142.534 286.000,150.464 286.000 L 157.168 286.000 157.284 289.300 L 157.400 292.600 163.971 292.710 C 171.826 292.842,171.600 292.719,171.600 296.849 L 171.600 300.000 200.000 300.000 L 228.400 300.000 228.400 303.603 L 228.400 307.205 200.100 307.103 L 171.800 307.000 171.685 303.507 L 171.569 300.013 160.885 299.907 L 150.200 299.800 150.098 297.200 C 149.908 292.387,150.594 292.800,142.792 292.800 L 136.000 292.800 136.000 289.829 C 136.000 285.924,135.676 285.600,131.771 285.600 L 128.800 285.600 128.800 282.629 C 128.800 278.727,128.474 278.400,124.588 278.400 L 121.632 278.400 121.516 275.100 L 121.400 271.800 118.000 271.600 L 114.600 271.400 114.400 268.000 L 114.200 264.600 111.600 264.498 C 106.787 264.308,107.200 264.993,107.200 257.200 C 107.200 249.407,107.613 250.092,102.800 249.902 L 100.200 249.800 100.093 239.633 C 99.969 227.846,100.192 228.473,96.064 228.316 L 93.000 228.200 92.895 214.647 C 92.772 198.868,92.492 199.922,96.762 200.084 L 99.800 200.200 99.902 202.800 M363.953 200.543 C 364.283 200.940,364.376 214.300,364.302 250.443 L 364.200 299.800 360.800 299.800 L 357.400 299.800 357.298 250.225 C 357.218 210.828,357.300 200.584,357.698 200.331 C 358.569 199.778,363.455 199.944,363.953 200.543 M278.400 221.400 L 278.400 228.400 275.449 228.400 C 271.549 228.400,271.641 228.221,271.510 236.029 L 271.400 242.600 268.104 242.716 C 264.328 242.849,264.481 242.670,264.302 247.200 L 264.200 249.800 260.800 249.800 L 257.400 249.800 257.296 232.600 C 257.238 223.140,257.278 215.175,257.383 214.900 C 257.530 214.518,260.026 214.400,267.987 214.400 L 278.400 214.400 278.400 221.400 M299.907 239.300 L 299.800 249.800 296.736 249.916 C 292.734 250.068,292.841 249.864,292.710 257.629 L 292.600 264.200 289.536 264.316 C 285.816 264.457,285.672 264.605,285.519 268.418 L 285.400 271.400 282.418 271.519 C 278.567 271.673,278.400 271.836,278.400 275.449 L 278.400 278.400 275.449 278.400 C 271.836 278.400,271.673 278.567,271.519 282.418 L 271.400 285.400 268.336 285.516 C 264.616 285.657,264.472 285.805,264.319 289.618 L 264.200 292.600 257.629 292.710 C 249.864 292.841,250.068 292.734,249.916 296.736 L 249.800 299.800 239.284 299.907 L 228.769 300.013 228.884 296.507 L 229.000 293.000 235.800 292.800 L 242.600 292.600 242.800 289.400 L 243.000 286.200 249.571 286.090 C 257.336 285.959,257.132 286.066,257.284 282.064 L 257.400 279.000 260.382 278.881 C 264.195 278.728,264.343 278.584,264.484 274.864 L 264.600 271.800 267.582 271.681 C 271.395 271.528,271.543 271.384,271.684 267.664 L 271.800 264.600 274.864 264.484 C 278.584 264.343,278.728 264.195,278.881 260.382 L 279.000 257.400 282.064 257.284 C 286.066 257.132,285.959 257.336,286.090 249.571 L 286.200 243.000 289.400 242.800 L 292.600 242.600 292.704 236.200 C 292.834 228.143,292.489 228.800,296.594 228.800 L 300.013 228.800 299.907 239.300 M284.800 235.800 L 284.800 242.000 282.200 242.000 L 279.600 242.000 279.600 235.800 L 279.600 229.600 282.200 229.600 L 284.800 229.600 284.800 235.800 " stroke="none" fill="#040404" fill-rule="evenodd"></path></g></svg>