<svg xmlns="http://www.w3.org/2000/svg" xmlns:xlink="http://www.w3.org/1999/xlink" version="1.1" style="enable-background:new 0 0 512.001 512.001;" xml:space="preserve" width="108.69352189818983" height="106.36966591889997"><rect id="backgroundrect" width="100%" height="100%" x="0" y="0" fill="none" stroke="none" class="" style=""/>
















<g class="currentLayer" style=""><title>Layer 1</title><g id="svg_1" class="">
	<g id="svg_2">
		<g id="svg_3">
			<path d="M98,51 c-0,-22 -19,-40 -42,-41 V1 h-3 v8 C29,10 11,28 10,51 H2 v3 h8 c0,22 19,41 42,42 V104 h3 v-7 c22,-0 41,-19 42,-42 h8 v-3 H98 zM55,93 v-8 h-3 v8 c-21,-0 -38,-17 -39,-38 H21 v-3 H13 c0,-20 17,-37 38,-38 V20 h3 V12 c21,0 38,17 38,38 h-8 v3 h8 C94,75 77,92 55,93 z" id="svg_4"/>
			<rect x="52" y="51" width="3" height="3" id="svg_5"/>
			<rect x="59" y="51" width="3" height="3" id="svg_6"/>
			<rect x="46" y="51" width="3" height="3" id="svg_7"/>
		</g>
	</g>
</g><g id="svg_8">
</g><g id="svg_9">
</g><g id="svg_10">
</g><g id="svg_11">
</g><g id="svg_12">
</g><g id="svg_13">
</g><g id="svg_14">
</g><g id="svg_15">
</g><g id="svg_16">
</g><g id="svg_17">
</g><g id="svg_18">
</g><g id="svg_19">
</g><g id="svg_20">
</g><g id="svg_21">
</g><g id="svg_22">
</g></g></svg>